<?xml version="1.0"?>
<svg xmlns="http://www.w3.org/2000/svg" xmlns:xlink="http://www.w3.org/1999/xlink" xmlns:svgjs="http://svgjs.com/svgjs" version="1.1" width="512" height="512" x="0" y="0" viewBox="0 0 24 24" style="enable-background:new 0 0 512 512" xml:space="preserve" class=""><g><path xmlns="http://www.w3.org/2000/svg" d="m13 24h-2c-.551 0-1-.449-1-1v-2.5c0-.276.224-.5.5-.5s.5.224.5.5v2.5h2v-2.5c0-.276.224-.5.5-.5s.5.224.5.5v2.5c0 .551-.449 1-1 1z" fill="#9f9e9e" data-original="#000000" style="" class=""/><path xmlns="http://www.w3.org/2000/svg" d="m17.5 9h-11c-.186 0-.356-.103-.442-.267-.087-.165-.075-.363.03-.516l5.5-8c.187-.271.638-.271.824 0l5.5 8c.105.153.117.352.03.516-.086.164-.256.267-.442.267zm-10.049-1h9.099l-4.55-6.618z" fill="#9f9e9e" data-original="#000000" style="" class=""/><path xmlns="http://www.w3.org/2000/svg" d="m19.5 15h-15c-.189 0-.362-.107-.447-.276-.085-.17-.067-.372.047-.524l4.5-6c.166-.221.48-.265.7-.1.221.166.266.479.1.7l-3.9 5.2h13l-3.9-5.2c-.166-.221-.121-.534.1-.7.22-.167.534-.122.7.1l4.5 6c.114.151.132.354.047.523-.085.17-.258.277-.447.277z" fill="#9f9e9e" data-original="#000000" style="" class=""/><path xmlns="http://www.w3.org/2000/svg" d="m20.5 21h-17c-.188 0-.361-.106-.446-.275s-.068-.37.044-.522l4.43-6c.164-.222.477-.27.699-.105.222.164.27.477.105.699l-3.841 5.203h15.019l-3.842-5.203c-.164-.222-.117-.535.105-.699.222-.165.535-.116.699.105l4.43 6c.112.152.129.354.044.522s-.258.275-.446.275z" fill="#9f9e9e" data-original="#000000" style="" class=""/></g></svg>
