<?xml version="1.0"?>
<svg xmlns="http://www.w3.org/2000/svg" xmlns:xlink="http://www.w3.org/1999/xlink" xmlns:svgjs="http://svgjs.com/svgjs" version="1.1" width="512" height="512" x="0" y="0" viewBox="0 0 512 512" style="enable-background:new 0 0 512 512" xml:space="preserve" class=""><g><g xmlns="http://www.w3.org/2000/svg"><path d="m480.922 79.738c-21.775-51.42-52.309-79.738-85.977-79.738s-64.202 28.318-85.977 79.738c-20.04 47.327-31.077 109.925-31.077 176.262s11.037 128.935 31.078 176.262c21.774 51.42 52.308 79.738 85.976 79.738s64.202-28.318 85.977-79.738c20.041-47.327 31.078-109.925 31.078-176.262s-11.037-128.935-31.078-176.262zm-85.977 402.262c-20.549 0-41.817-22.393-58.351-61.437-12.843-30.329-21.678-67.753-25.887-108.671 9.248 5.189 19.899 8.163 31.237 8.163 35.32 0 64.055-28.734 64.055-64.055s-28.734-64.055-64.055-64.055c-11.338 0-21.99 2.974-31.239 8.164 10.566-102.545 49.111-170.109 84.24-170.109 20.549 0 41.817 22.393 58.351 61.437 18.51 43.71 28.704 102.153 28.704 164.563 0 133.186-45.879 226-87.055 226zm-87.054-226c0-18.777 15.276-34.055 34.054-34.055s34.055 15.277 34.055 34.055-15.277 34.055-34.055 34.055-34.054-15.278-34.054-34.055z" fill="#9f9e9e" data-original="#000000" style="" class=""/><path d="m117.055 0c-33.668 0-64.202 28.318-85.977 79.738-20.041 47.327-31.078 109.925-31.078 176.262s11.037 128.935 31.078 176.262c21.775 51.42 52.309 79.738 85.977 79.738 33.669 0 64.202-28.318 85.977-79.738 20.041-47.327 31.078-109.925 31.078-176.262s-11.037-128.935-31.079-176.262c-21.774-51.42-52.307-79.738-85.976-79.738zm0 482c-20.55 0-41.817-22.393-58.351-61.437-12.843-30.329-21.678-67.754-25.887-108.671 9.248 5.189 19.899 8.163 31.238 8.163 35.319 0 64.054-28.734 64.054-64.055s-28.734-64.055-64.054-64.055c-11.339 0-21.991 2.974-31.24 8.164 10.566-102.545 49.111-170.109 84.24-170.109 20.55 0 41.818 22.393 58.352 61.437 18.509 43.71 28.703 102.153 28.703 164.563 0 133.186-45.88 226-87.055 226zm-87.055-226c0-18.777 15.277-34.055 34.055-34.055s34.053 15.278 34.053 34.055-15.276 34.055-34.054 34.055-34.054-15.278-34.054-34.055z" fill="#9f9e9e" data-original="#000000" style="" class=""/></g></g></svg>
