<?xml version="1.0"?>
<svg xmlns="http://www.w3.org/2000/svg" xmlns:xlink="http://www.w3.org/1999/xlink" xmlns:svgjs="http://svgjs.com/svgjs" version="1.1" width="512" height="512" x="0" y="0" viewBox="0 0 511.997 511.997" style="enable-background:new 0 0 512 512" xml:space="preserve" class=""><g><g xmlns="http://www.w3.org/2000/svg" id="XMLID_1092_"><g id="XMLID_1303_"><g id="XMLID_1304_"><path id="XMLID_1309_" d="m509.087 224.915-92.838-93.324c-23.786-23.91-56.771-37.623-90.498-37.623-24.691 0-49.188 7.425-69.754 21.028-20.566-13.604-45.062-21.028-69.754-21.028-33.727 0-66.712 13.713-90.498 37.623l-92.837 93.324s.006.005.006.006c-3.354 3.365-3.93 8.744-1.112 12.776l52.541 75.181c18.318 26.212 41.218 48.303 68.061 65.659 26.616 17.209 55.88 28.977 86.979 34.978.64.124 1.277.184 1.905.184 4.696 0 8.885-3.324 9.809-8.107 1.046-5.423-2.502-10.667-7.925-11.714-58.006-11.192-108.59-44.027-142.436-92.456l-41.549-59.452h78.125c24.865.01 49.518 9.073 69.419 25.521 22.23 18.374 50.381 28.493 79.268 28.493s57.037-10.119 79.268-28.493c19.901-16.448 44.554-25.511 69.419-25.521h78.125l-41.551 59.45c-33.818 48.39-84.358 81.216-142.311 92.433-5.422 1.049-8.967 6.295-7.917 11.718.925 4.78 5.112 8.102 9.807 8.102.63 0 1.27-.06 1.911-.185 63.08-12.209 118.092-47.939 154.902-100.61 0 0 53.298-76.396 53.578-77.07 1.552-3.732.706-8.029-2.143-10.893zm-186.564 27.158c-18.653 15.418-42.279 23.909-66.525 23.909s-47.872-8.491-66.525-23.909c-4.463-3.688-9.133-7.06-13.971-10.105h6.034c25.404 0 50.436-4.135 74.462-12.295 24.026 8.16 49.058 12.295 74.462 12.295h6.034c-4.838 3.045-9.508 6.417-13.971 10.105zm7.936-30.105c-24.295 0-48.217-4.14-71.103-12.303-1.086-.388-2.223-.581-3.359-.581s-2.273.193-3.359.581c-22.886 8.163-46.808 12.303-71.103 12.303 0 0-74.239-.001-74.268-.001l-73.217.001 75.874-76.271c20.059-20.164 47.876-31.729 76.318-31.729 22.842 0 45.482 7.549 63.753 21.256 3.555 2.668 8.447 2.668 12.002 0 18.271-13.707 40.911-21.256 63.753-21.256 28.442 0 56.26 11.564 76.318 31.729l75.875 76.271z" fill="#9f9e9e" data-original="#000000" style="" class=""/><path id="XMLID_1305_" d="m256.057 398.029c-2.63 0-5.21 1.069-7.069 2.93-1.86 1.859-2.931 4.439-2.931 7.07 0 2.63 1.07 5.21 2.931 7.069 1.859 1.86 4.439 2.931 7.069 2.931 2.641 0 5.21-1.07 7.07-2.931 1.87-1.859 2.939-4.439 2.939-7.069 0-2.631-1.069-5.211-2.939-7.07-1.86-1.86-4.429-2.93-7.07-2.93z" fill="#9f9e9e" data-original="#000000" style="" class=""/></g></g></g></g></svg>
