<?xml version="1.0" encoding="UTF-8" standalone="no"?> <!-- Created with Vectornator for iOS (http://vectornator.io/) --><!DOCTYPE svg PUBLIC "-//W3C//DTD SVG 1.1//EN" "http://www.w3.org/Graphics/SVG/1.1/DTD/svg11.dtd">
<svg style="fill-rule:evenodd;clip-rule:evenodd;stroke-linecap:round;stroke-linejoin:round;" xmlns:vectornator="http://vectornator.io" xmlns:xlink="http://www.w3.org/1999/xlink" xmlns="http://www.w3.org/2000/svg" xml:space="preserve" version="1.1" viewBox="0 0 200 200">
<metadata>
<vectornator:setting key="DimensionsVisible" value="1"/>
<vectornator:setting key="SnapToGrid" value="0"/>
<vectornator:setting key="SnapToPoints" value="0"/>
<vectornator:setting key="GuidesVisible" value="1"/>
<vectornator:setting key="RulersVisible" value="1"/>
<vectornator:setting key="SnapToEdges" value="0"/>
<vectornator:setting key="DisplayWhiteBackground" value="0"/>
<vectornator:setting key="SnapToGuides" value="1"/>
<vectornator:setting key="GridSpacing" value="36"/>
<vectornator:setting key="Units" value="Pixels"/>
<vectornator:setting key="DynamicGuides" value="0"/>
<vectornator:setting key="New" value="1"/>
</metadata>
<defs/>
<g id="Layer 1" vectornator:layerName="Layer 1">
<path stroke="#000000" stroke-width="1" d="M64.1487+81.5348C64.1487+71.0718+71.4641+62.5899+80.4881+62.5899C89.5121+62.5899+96.8275+71.0718+96.8275+81.5348C96.8275+91.9977+89.5121+100.48+80.4881+100.48C71.4641+100.48+64.1487+91.9977+64.1487+81.5348Z" fill="#ffffff" stroke-linecap="round" opacity="1" stroke-linejoin="round"/>
<path stroke="#000000" stroke-width="1" d="M138.979+82.0144C138.979+71.5514+131.608+63.0695+122.514+63.0695C113.42+63.0695+106.048+71.5514+106.048+82.0144C106.048+92.4773+113.42+100.959+122.514+100.959C131.608+100.959+138.979+92.4773+138.979+82.0144Z" fill="#ffffff" stroke-linecap="round" opacity="1" stroke-linejoin="round"/>
<path stroke="#000000" stroke-width="1" d="M78.2974+80.6355C78.2974+74.8411+82.3773+70.1439+87.4101+70.1439C92.4429+70.1439+96.5228+74.8411+96.5228+80.6355C96.5228+86.4298+92.4429+91.1271+87.4101+91.1271C82.3773+91.1271+78.2974+86.4298+78.2974+80.6355Z" fill="#000000" stroke-linecap="round" opacity="1" stroke-linejoin="round"/>
<path stroke="#000000" stroke-width="1" d="M124.744+80.7554C124.744+74.961+120.632+70.2638+115.561+70.2638C110.489+70.2638+106.378+74.961+106.378+80.7554C106.378+86.5497+110.489+91.247+115.561+91.247C120.632+91.247+124.744+86.5497+124.744+80.7554Z" fill="#000000" stroke-linecap="round" opacity="1" stroke-linejoin="round"/>
</g>
</svg>
