<?xml version="1.0" encoding="UTF-8" standalone="no"?> <!-- Created with Vectornator for iOS (http://vectornator.io/) --><!DOCTYPE svg PUBLIC "-//W3C//DTD SVG 1.1//EN" "http://www.w3.org/Graphics/SVG/1.1/DTD/svg11.dtd">
<svg style="fill-rule:evenodd;clip-rule:evenodd;stroke-linecap:round;stroke-linejoin:round;" xmlns:vectornator="http://vectornator.io" xmlns:xlink="http://www.w3.org/1999/xlink" xmlns="http://www.w3.org/2000/svg" xml:space="preserve" version="1.1" viewBox="0 0 200 200">
<metadata>
<vectornator:setting key="DimensionsVisible" value="1"/>
<vectornator:setting key="Units" value="Pixels"/>
<vectornator:setting key="SnapToPoints" value="0"/>
<vectornator:setting key="GuidesVisible" value="1"/>
<vectornator:setting key="RulersVisible" value="1"/>
<vectornator:setting key="CMYKEnabledKey" value="0"/>
<vectornator:setting key="SnapToEdges" value="0"/>
<vectornator:setting key="DisplayWhiteBackground" value="0"/>
<vectornator:setting key="SnapToGuides" value="1"/>
<vectornator:setting key="GridSpacing" value="36"/>
<vectornator:setting key="SnapToGrid" value="0"/>
<vectornator:setting key="DynamicGuides" value="0"/>
<vectornator:setting key="New" value="1"/>
</metadata>
<defs/>
<g id="Layer 1" vectornator:layerName="Layer 1">
<path stroke="#000000" stroke-width="1" d="M64.1487+81.5348C64.1487+71.0718+71.4641+62.5899+80.4881+62.5899C89.5121+62.5899+96.8275+71.0718+96.8275+81.5348C96.8275+91.9977+89.5121+100.48+80.4881+100.48C71.4641+100.48+64.1487+91.9977+64.1487+81.5348Z" fill="#ffffff" stroke-linecap="round" opacity="1" stroke-linejoin="round"/>
<path stroke="#000000" stroke-width="1" d="M138.979+82.0144C138.979+71.5514+131.608+63.0695+122.514+63.0695C113.42+63.0695+106.048+71.5514+106.048+82.0144C106.048+92.4773+113.42+100.959+122.514+100.959C131.608+100.959+138.979+92.4773+138.979+82.0144Z" fill="#ffffff" stroke-linecap="round" opacity="1" stroke-linejoin="round"/>
<path stroke="#000000" stroke-width="1" d="M66.6667+86.7506C66.6667+80.9562+70.7466+76.259+75.7794+76.259C80.8122+76.259+84.8921+80.9562+84.8921+86.7506C84.8921+92.545+80.8122+97.2422+75.7794+97.2422C70.7466+97.2422+66.6667+92.545+66.6667+86.7506Z" fill="#000000" stroke-linecap="round" opacity="1" stroke-linejoin="round"/>
<path stroke="#000000" stroke-width="1" d="M135.415+75.1199C135.415+69.3256+131.304+64.6283+126.232+64.6283C121.16+64.6283+117.049+69.3256+117.049+75.1199C117.049+80.9143+121.16+85.6115+126.232+85.6115C131.304+85.6115+135.415+80.9143+135.415+75.1199Z" fill="#000000" stroke-linecap="round" opacity="1" stroke-linejoin="round"/>
</g>
</svg>
