<?xml version="1.0" encoding="UTF-8" standalone="no"?> <!-- Created with Vectornator for iOS (http://vectornator.io/) --><!DOCTYPE svg PUBLIC "-//W3C//DTD SVG 1.1//EN" "http://www.w3.org/Graphics/SVG/1.1/DTD/svg11.dtd">
<svg style="fill-rule:evenodd;clip-rule:evenodd;stroke-linecap:round;stroke-linejoin:round;" xmlns:vectornator="http://vectornator.io" xmlns:xlink="http://www.w3.org/1999/xlink" xmlns="http://www.w3.org/2000/svg" xml:space="preserve" version="1.1" viewBox="0 0 200 200">
<metadata>
<vectornator:setting key="DimensionsVisible" value="1"/>
<vectornator:setting key="SnapToGrid" value="0"/>
<vectornator:setting key="SnapToPoints" value="0"/>
<vectornator:setting key="GuidesVisible" value="1"/>
<vectornator:setting key="RulersVisible" value="1"/>
<vectornator:setting key="SnapToEdges" value="0"/>
<vectornator:setting key="DisplayWhiteBackground" value="0"/>
<vectornator:setting key="SnapToGuides" value="1"/>
<vectornator:setting key="GridSpacing" value="36"/>
<vectornator:setting key="Units" value="Pixels"/>
<vectornator:setting key="DynamicGuides" value="0"/>
<vectornator:setting key="New" value="1"/>
</metadata>
<defs/>
<g id="Layer 1" vectornator:layerName="Layer 1">
<g opacity="1">
<path d="M2775.28+835.553C2641.21+835.553+2528.1+686.522+2509.06+660.041C2528.1+633.573+2641.3+484.528+2775.28+484.528C2909.35+484.528+3022.46+633.559+3041.5+660.041C3022.46+686.508+2909.25+835.553+2775.28+835.553Z" opacity="1" fill="#ffffff"/>
<path d="M2775.28+491.549C2900.22+491.549+3007.46+625.612+3032.93+660.041C3007.46+694.469+2900.22+828.532+2775.28+828.532C2650.34+828.532+2543.09+694.469+2517.63+660.041C2543.09+625.612+2650.34+491.549+2775.28+491.549M2775.28+477.508C2623.57+477.508+2500.6+660.041+2500.6+660.041C2500.6+660.041+2623.57+842.573+2775.28+842.573C2926.98+842.573+3049.96+660.041+3049.96+660.041C3049.96+660.041+2926.98+477.508+2775.28+477.508L2775.28+477.508Z" opacity="1" fill="#ba9b48"/>
</g>
<g opacity="1">
<path d="M2775.28+779.389C2710.91+779.389+2658.54+725.851+2658.54+660.041C2658.54+594.23+2710.91+540.692+2775.28+540.692C2839.65+540.692+2892.02+594.23+2892.02+660.041C2892.02+725.851+2839.65+779.389+2775.28+779.389Z" opacity="1" fill="#74572c"/>
<path d="M2775.28+547.713C2835.86+547.713+2885.15+598.106+2885.15+660.041C2885.15+721.975+2835.86+772.368+2775.28+772.368C2714.7+772.368+2665.41+721.975+2665.41+660.041C2665.41+598.106+2714.7+547.713+2775.28+547.713M2775.28+533.672C2707.01+533.672+2651.67+590.243+2651.67+660.041C2651.67+729.838+2707.01+786.409+2775.28+786.409C2843.55+786.409+2898.88+729.838+2898.88+660.041C2898.88+590.243+2843.55+533.672+2775.28+533.672L2775.28+533.672Z" opacity="1" fill="#74572c"/>
</g>
<path d="M2720.34+660.041C2720.34+629.022+2744.94+603.877+2775.28+603.877C2805.62+603.877+2830.21+629.022+2830.21+660.041C2830.21+691.059+2805.62+716.204+2775.28+716.204C2744.94+716.204+2720.34+691.059+2720.34+660.041Z" opacity="1" fill="#36404d"/>
<path d="M2789.01+603.877C2789.01+588.367+2801.31+575.795+2816.48+575.795C2831.65+575.795+2843.95+588.367+2843.95+603.877C2843.95+619.386+2831.65+631.959+2816.48+631.959C2801.31+631.959+2789.01+619.386+2789.01+603.877Z" opacity="1" fill="#ffffff"/>
<g opacity="1">
<path d="M2775.28+835.553C2641.21+835.553+2528.1+686.522+2509.06+660.041C2528.1+633.573+2641.3+484.528+2775.28+484.528C2909.35+484.528+3022.46+633.559+3041.5+660.041C3022.46+686.508+2909.25+835.553+2775.28+835.553Z" opacity="1" fill="#ffffff"/>
<path d="M2775.28+491.549C2900.22+491.549+3007.46+625.612+3032.93+660.041C3007.46+694.469+2900.22+828.532+2775.28+828.532C2650.34+828.532+2543.09+694.469+2517.63+660.041C2543.09+625.612+2650.34+491.549+2775.28+491.549M2775.28+477.508C2623.57+477.508+2500.6+660.041+2500.6+660.041C2500.6+660.041+2623.57+842.573+2775.28+842.573C2926.98+842.573+3049.96+660.041+3049.96+660.041C3049.96+660.041+2926.98+477.508+2775.28+477.508L2775.28+477.508Z" opacity="1" fill="#ba9b48"/>
</g>
<g opacity="1">
<path d="M2775.28+779.389C2710.91+779.389+2658.54+725.851+2658.54+660.041C2658.54+594.23+2710.91+540.692+2775.28+540.692C2839.65+540.692+2892.02+594.23+2892.02+660.041C2892.02+725.851+2839.65+779.389+2775.28+779.389Z" opacity="1" fill="#74572c"/>
<path d="M2775.28+547.713C2835.86+547.713+2885.15+598.106+2885.15+660.041C2885.15+721.975+2835.86+772.368+2775.28+772.368C2714.7+772.368+2665.41+721.975+2665.41+660.041C2665.41+598.106+2714.7+547.713+2775.28+547.713M2775.28+533.672C2707.01+533.672+2651.67+590.243+2651.67+660.041C2651.67+729.838+2707.01+786.409+2775.28+786.409C2843.55+786.409+2898.88+729.838+2898.88+660.041C2898.88+590.243+2843.55+533.672+2775.28+533.672L2775.28+533.672Z" opacity="1" fill="#74572c"/>
</g>
<path d="M2720.34+660.041C2720.34+629.022+2744.94+603.877+2775.28+603.877C2805.62+603.877+2830.21+629.022+2830.21+660.041C2830.21+691.059+2805.62+716.204+2775.28+716.204C2744.94+716.204+2720.34+691.059+2720.34+660.041Z" opacity="1" fill="#36404d"/>
<path d="M2789.01+603.877C2789.01+588.367+2801.31+575.795+2816.48+575.795C2831.65+575.795+2843.95+588.367+2843.95+603.877C2843.95+619.386+2831.65+631.959+2816.48+631.959C2801.31+631.959+2789.01+619.386+2789.01+603.877Z" opacity="1" fill="#ffffff"/>
<g opacity="1">
<path d="M2775.28+835.553C2641.21+835.553+2528.1+686.522+2509.06+660.041C2528.1+633.573+2641.3+484.528+2775.28+484.528C2909.35+484.528+3022.46+633.559+3041.5+660.041C3022.46+686.508+2909.25+835.553+2775.28+835.553Z" opacity="1" fill="#ffffff"/>
<path d="M2775.28+491.549C2900.22+491.549+3007.46+625.612+3032.93+660.041C3007.46+694.469+2900.22+828.532+2775.28+828.532C2650.34+828.532+2543.09+694.469+2517.63+660.041C2543.09+625.612+2650.34+491.549+2775.28+491.549M2775.28+477.508C2623.57+477.508+2500.6+660.041+2500.6+660.041C2500.6+660.041+2623.57+842.573+2775.28+842.573C2926.98+842.573+3049.96+660.041+3049.96+660.041C3049.96+660.041+2926.98+477.508+2775.28+477.508L2775.28+477.508Z" opacity="1" fill="#ba9b48"/>
</g>
<g opacity="1">
<path d="M2775.28+779.389C2710.91+779.389+2658.54+725.851+2658.54+660.041C2658.54+594.23+2710.91+540.692+2775.28+540.692C2839.65+540.692+2892.02+594.23+2892.02+660.041C2892.02+725.851+2839.65+779.389+2775.28+779.389Z" opacity="1" fill="#74572c"/>
<path d="M2775.28+547.713C2835.86+547.713+2885.15+598.106+2885.15+660.041C2885.15+721.975+2835.86+772.368+2775.28+772.368C2714.7+772.368+2665.41+721.975+2665.41+660.041C2665.41+598.106+2714.7+547.713+2775.28+547.713M2775.28+533.672C2707.01+533.672+2651.67+590.243+2651.67+660.041C2651.67+729.838+2707.01+786.409+2775.28+786.409C2843.55+786.409+2898.88+729.838+2898.88+660.041C2898.88+590.243+2843.55+533.672+2775.28+533.672L2775.28+533.672Z" opacity="1" fill="#74572c"/>
</g>
<path d="M2720.34+660.041C2720.34+629.022+2744.94+603.877+2775.28+603.877C2805.62+603.877+2830.21+629.022+2830.21+660.041C2830.21+691.059+2805.62+716.204+2775.28+716.204C2744.94+716.204+2720.34+691.059+2720.34+660.041Z" opacity="1" fill="#36404d"/>
<path d="M2789.01+603.877C2789.01+588.367+2801.31+575.795+2816.48+575.795C2831.65+575.795+2843.95+588.367+2843.95+603.877C2843.95+619.386+2831.65+631.959+2816.48+631.959C2801.31+631.959+2789.01+619.386+2789.01+603.877Z" opacity="1" fill="#ffffff"/>
<g opacity="1">
<path d="M2866.22+1338.75C2732.15+1338.75+2619.03+1189.72+2600+1163.24C2619.03+1136.77+2732.24+987.725+2866.22+987.725C3000.29+987.725+3113.4+1136.76+3132.44+1163.24C3113.4+1189.7+3000.19+1338.75+2866.22+1338.75Z" opacity="1" fill="#ffffff"/>
<path d="M2866.22+994.746C2991.15+994.746+3098.4+1128.81+3123.87+1163.24C3098.4+1197.67+2991.15+1331.73+2866.22+1331.73C2741.28+1331.73+2634.03+1197.67+2608.57+1163.24C2634.03+1128.81+2741.28+994.746+2866.22+994.746M2866.22+980.705C2714.51+980.705+2591.54+1163.24+2591.54+1163.24C2591.54+1163.24+2714.51+1345.77+2866.22+1345.77C3017.92+1345.77+3140.9+1163.24+3140.9+1163.24C3140.9+1163.24+3017.92+980.705+2866.22+980.705L2866.22+980.705Z" opacity="1" fill="#ba9b48"/>
</g>
<g opacity="1">
<path d="M2866.22+1282.59C2801.85+1282.59+2749.48+1229.05+2749.48+1163.24C2749.48+1097.43+2801.85+1043.89+2866.22+1043.89C2930.59+1043.89+2982.96+1097.43+2982.96+1163.24C2982.96+1229.05+2930.59+1282.59+2866.22+1282.59Z" opacity="1" fill="#74572c"/>
<path d="M2866.22+1050.91C2926.8+1050.91+2976.09+1101.3+2976.09+1163.24C2976.09+1225.17+2926.8+1275.57+2866.22+1275.57C2805.64+1275.57+2756.35+1225.17+2756.35+1163.24C2756.35+1101.3+2805.64+1050.91+2866.22+1050.91M2866.22+1036.87C2797.95+1036.87+2742.61+1093.44+2742.61+1163.24C2742.61+1233.04+2797.95+1289.61+2866.22+1289.61C2934.49+1289.61+2989.82+1233.04+2989.82+1163.24C2989.82+1093.44+2934.49+1036.87+2866.22+1036.87L2866.22+1036.87Z" opacity="1" fill="#74572c"/>
</g>
<path d="M2811.28+1163.24C2811.28+1132.22+2835.88+1107.07+2866.22+1107.07C2896.56+1107.07+2921.15+1132.22+2921.15+1163.24C2921.15+1194.26+2896.56+1219.4+2866.22+1219.4C2835.88+1219.4+2811.28+1194.26+2811.28+1163.24Z" opacity="1" fill="#36404d"/>
<path d="M2879.95+1107.07C2879.95+1091.56+2892.25+1078.99+2907.42+1078.99C2922.59+1078.99+2934.89+1091.56+2934.89+1107.07C2934.89+1122.58+2922.59+1135.16+2907.42+1135.16C2892.25+1135.16+2879.95+1122.58+2879.95+1107.07Z" opacity="1" fill="#ffffff"/>
<g opacity="1">
<path d="M77.554+97.488C67.792+97.488+59.556+86.874+58.17+84.988C59.556+83.103+67.799+72.488+77.554+72.488C87.316+72.488+95.552+83.102+96.938+84.988C95.552+86.873+87.309+97.488+77.554+97.488Z" opacity="1" fill="#ffffff"/>
<path d="M77.554+72.988C86.651+72.988+94.46+82.536+96.314+84.988C94.46+87.44+86.651+96.988+77.554+96.988C68.457+96.988+60.648+87.44+58.794+84.988C60.648+82.536+68.457+72.988+77.554+72.988M77.554+71.988C66.508+71.988+57.554+84.988+57.554+84.988C57.554+84.988+66.508+97.988+77.554+97.988C88.6+97.988+97.554+84.988+97.554+84.988C97.554+84.988+88.6+71.988+77.554+71.988L77.554+71.988Z" opacity="1" fill="#ba9b48"/>
</g>
<g opacity="1">
<path d="M124.796+97.8477C115.034+97.8477+106.798+87.2337+105.412+85.3477C106.798+83.4627+115.041+72.8477+124.796+72.8477C134.558+72.8477+142.794+83.4617+144.18+85.3477C142.794+87.2327+134.551+97.8477+124.796+97.8477Z" opacity="1" fill="#ffffff"/>
<path d="M124.796+73.3477C133.893+73.3477+141.702+82.8957+143.556+85.3477C141.702+87.7997+133.893+97.3477+124.796+97.3477C115.699+97.3477+107.89+87.7997+106.036+85.3477C107.89+82.8957+115.699+73.3477+124.796+73.3477M124.796+72.3477C113.75+72.3477+104.796+85.3477+104.796+85.3477C104.796+85.3477+113.75+98.3477+124.796+98.3477C135.842+98.3477+144.796+85.3477+144.796+85.3477C144.796+85.3477+135.842+72.3477+124.796+72.3477L124.796+72.3477Z" opacity="1" fill="#ba9b48"/>
</g>
<g opacity="1">
<path d="M77.554+93.488C72.867+93.488+69.054+89.675+69.054+84.988C69.054+80.301+72.867+76.488+77.554+76.488C82.241+76.488+86.054+80.301+86.054+84.988C86.054+89.675+82.241+93.488+77.554+93.488Z" opacity="1" fill="#adae9f"/>
<path d="M77.554+76.988C81.965+76.988+85.554+80.577+85.554+84.988C85.554+89.399+81.965+92.988+77.554+92.988C73.143+92.988+69.554+89.399+69.554+84.988C69.554+80.577+73.143+76.988+77.554+76.988M77.554+75.988C72.583+75.988+68.554+80.017+68.554+84.988C68.554+89.959+72.583+93.988+77.554+93.988C82.525+93.988+86.554+89.959+86.554+84.988C86.554+80.017+82.525+75.988+77.554+75.988L77.554+75.988Z" opacity="1" fill="#adae9f"/>
</g>
<g opacity="1">
<path d="M124.796+93.8477C120.109+93.8477+116.296+90.0347+116.296+85.3477C116.296+80.6607+120.109+76.8477+124.796+76.8477C129.483+76.8477+133.296+80.6607+133.296+85.3477C133.296+90.0347+129.483+93.8477+124.796+93.8477Z" opacity="1" fill="#adae9f"/>
<path d="M124.796+77.3477C129.207+77.3477+132.796+80.9367+132.796+85.3477C132.796+89.7587+129.207+93.3477+124.796+93.3477C120.385+93.3477+116.796+89.7587+116.796+85.3477C116.796+80.9367+120.385+77.3477+124.796+77.3477M124.796+76.3477C119.825+76.3477+115.796+80.3767+115.796+85.3477C115.796+90.3187+119.825+94.3477+124.796+94.3477C129.767+94.3477+133.796+90.3187+133.796+85.3477C133.796+80.3767+129.767+76.3477+124.796+76.3477L124.796+76.3477Z" opacity="1" fill="#adae9f"/>
</g>
<path d="M73.554+84.988C73.554+82.7789+75.3448+80.988+77.554+80.988C79.7631+80.988+81.554+82.7789+81.554+84.988C81.554+87.1971+79.7631+88.988+77.554+88.988C75.3448+88.988+73.554+87.1971+73.554+84.988Z" opacity="1" fill="#36404d"/>
<path d="M120.796+85.3477C120.796+83.1386+122.587+81.3477+124.796+81.3477C127.005+81.3477+128.796+83.1386+128.796+85.3477C128.796+87.5569+127.005+89.3477+124.796+89.3477C122.587+89.3477+120.796+87.5569+120.796+85.3477Z" opacity="1" fill="#36404d"/>
<path d="M78.554+80.988C78.554+79.8834+79.4494+78.988+80.554+78.988C81.6585+78.988+82.554+79.8834+82.554+80.988C82.554+82.0926+81.6585+82.988+80.554+82.988C79.4494+82.988+78.554+82.0926+78.554+80.988Z" opacity="1" fill="#ffffff"/>
<path d="M125.796+81.3477C125.796+80.2432+126.692+79.3477+127.796+79.3477C128.901+79.3477+129.796+80.2432+129.796+81.3477C129.796+82.4523+128.901+83.3477+127.796+83.3477C126.692+83.3477+125.796+82.4523+125.796+81.3477Z" opacity="1" fill="#ffffff"/>
<path d="M101.361+88.4293L117.308+116.571L85.3727+116.547L101.361+88.4293Z" opacity="1" fill="#cd4444"/>
</g>
</svg>
