<?xml version="1.0" encoding="UTF-8" standalone="no"?> <!-- Created with Vectornator for iOS (http://vectornator.io/) --><!DOCTYPE svg PUBLIC "-//W3C//DTD SVG 1.1//EN" "http://www.w3.org/Graphics/SVG/1.1/DTD/svg11.dtd">
<svg style="fill-rule:evenodd;clip-rule:evenodd;stroke-linecap:round;stroke-linejoin:round;" xmlns:vectornator="http://vectornator.io" xmlns:xlink="http://www.w3.org/1999/xlink" xmlns="http://www.w3.org/2000/svg" xml:space="preserve" version="1.1" viewBox="0 0 200 200">
<metadata>
<vectornator:setting key="DimensionsVisible" value="1"/>
<vectornator:setting key="SnapToGrid" value="0"/>
<vectornator:setting key="SnapToPoints" value="0"/>
<vectornator:setting key="GuidesVisible" value="1"/>
<vectornator:setting key="RulersVisible" value="1"/>
<vectornator:setting key="SnapToEdges" value="0"/>
<vectornator:setting key="DisplayWhiteBackground" value="0"/>
<vectornator:setting key="SnapToGuides" value="1"/>
<vectornator:setting key="GridSpacing" value="36"/>
<vectornator:setting key="Units" value="Pixels"/>
<vectornator:setting key="DynamicGuides" value="0"/>
<vectornator:setting key="New" value="1"/>
</metadata>
<defs/>
<g id="Layer 1" vectornator:layerName="Layer 1">
<path d="M79.0145+82.3659C79.0145+72.3665+83.7118+64.2604+89.5061+64.2604C95.3005+64.2604+99.9977+72.3665+99.9977+82.3659C99.9977+92.3653+95.3005+100.471+89.5061+100.471C83.7118+100.471+79.0145+92.3653+79.0145+82.3659Z" opacity="1" fill="#ffffff"/>
<path d="M101.676+83.2053C101.676+73.2059+106.374+65.0998+112.168+65.0998C117.962+65.0998+122.66+73.2059+122.66+83.2053C122.66+93.2047+117.962+101.311+112.168+101.311C106.374+101.311+101.676+93.2047+101.676+83.2053Z" opacity="1" fill="#ffffff"/>
<path d="M90.1355+62.9609C86.1216+62.9609+82.8397+65.7673+80.6944+69.5444C78.5491+73.3216+77.3229+78.2778+77.3229+83.7254C77.3229+89.1729+78.5491+94.1291+80.6944+97.9063C82.8397+101.683+86.1216+104.49+90.1355+104.49C94.1495+104.49+97.4314+101.683+99.5767+97.9063C99.957+97.2366+100.298+96.5194+100.619+95.7794C100.939+96.5194+101.28+97.2366+101.661+97.9063C103.806+101.683+107.088+104.49+111.102+104.49C115.116+104.49+118.398+101.683+120.543+97.9063C122.688+94.1291+123.914+89.1729+123.914+83.7254C123.914+78.2778+122.688+73.3216+120.543+69.5444C118.398+65.7673+115.116+62.9609+111.102+62.9609C107.088+62.9609+103.806+65.7673+101.661+69.5444C101.28+70.2141+100.939+70.9313+100.619+71.6713C100.298+70.9313+99.957+70.2141+99.5767+69.5444C97.4314+65.7673+94.1495+62.9609+90.1355+62.9609ZM90.1355+67.5752C91.9113+67.5752+93.8693+68.9035+95.5181+71.8065C97.167+74.7096+98.289+78.9792+98.289+83.7254C98.289+88.4715+97.167+92.7411+95.5181+95.6442C93.8693+98.5473+91.9113+99.8755+90.1355+99.8755C88.3598+99.8755+86.4018+98.5473+84.753+95.6442C83.1041+92.7411+81.982+88.4715+81.982+83.7254C81.982+78.9792+83.1041+74.7096+84.753+71.8065C86.4018+68.9035+88.3598+67.5752+90.1355+67.5752ZM111.102+67.5752C112.877+67.5752+114.835+68.9035+116.484+71.8065C118.133+74.7096+119.255+78.9792+119.255+83.7254C119.255+88.4715+118.133+92.7411+116.484+95.6442C114.835+98.5473+112.877+99.8755+111.102+99.8755C109.326+99.8755+107.368+98.5473+105.719+95.6442C104.07+92.7411+102.948+88.4715+102.948+83.7254C102.948+78.9792+104.07+74.7096+105.719+71.8065C107.368+68.9035+109.326+67.5752+111.102+67.5752ZM91.3003+79.111C88.7272+79.111+86.6412+81.1769+86.6412+83.7254C86.6412+86.2738+88.7272+88.3397+91.3003+88.3397C93.8735+88.3397+95.9595+86.2738+95.9595+83.7254C95.9595+81.1769+93.8735+79.111+91.3003+79.111ZM109.937+79.111C107.364+79.111+105.278+81.1769+105.278+83.7254C105.278+86.2738+107.364+88.3397+109.937+88.3397C112.51+88.3397+114.596+86.2738+114.596+83.7254C114.596+81.1769+112.51+79.111+109.937+79.111Z" opacity="1" fill="#000000"/>
</g>
</svg>
