<?xml version="1.0" encoding="UTF-8" standalone="no"?> <!-- Created with Vectornator for iOS (http://vectornator.io/) --><!DOCTYPE svg PUBLIC "-//W3C//DTD SVG 1.1//EN" "http://www.w3.org/Graphics/SVG/1.1/DTD/svg11.dtd">
<svg style="fill-rule:evenodd;clip-rule:evenodd;stroke-linecap:round;stroke-linejoin:round;" xmlns:vectornator="http://vectornator.io" xmlns:xlink="http://www.w3.org/1999/xlink" xmlns="http://www.w3.org/2000/svg" xml:space="preserve" version="1.1" viewBox="0 0 200 200">
<metadata>
<vectornator:setting key="DimensionsVisible" value="1"/>
<vectornator:setting key="SnapToGrid" value="0"/>
<vectornator:setting key="SnapToPoints" value="0"/>
<vectornator:setting key="GuidesVisible" value="1"/>
<vectornator:setting key="RulersVisible" value="1"/>
<vectornator:setting key="SnapToEdges" value="0"/>
<vectornator:setting key="DisplayWhiteBackground" value="0"/>
<vectornator:setting key="SnapToGuides" value="1"/>
<vectornator:setting key="GridSpacing" value="36"/>
<vectornator:setting key="Units" value="Pixels"/>
<vectornator:setting key="DynamicGuides" value="0"/>
<vectornator:setting key="New" value="1"/>
</metadata>
<defs/>
<g id="Layer 1" vectornator:layerName="Layer 1">
<g opacity="1">
<path d="M108.519+65.2326C104.693+65.2326+101.354+68.7526+99.5192+73.9956C97.6842+68.7526+94.3452+65.2326+90.5192+65.2326C84.7202+65.2326+80.0192+73.2916+80.0192+83.2326C80.0192+93.1736+84.7202+101.233+90.5192+101.233C94.3452+101.233+97.6842+97.7126+99.5192+92.4696C101.354+97.7126+104.693+101.233+108.519+101.233C114.318+101.233+119.019+93.1736+119.019+83.2326C119.019+73.2916+114.318+65.2326+108.519+65.2326Z" opacity="1" fill="#fafafa"/>
<path d="M108.519+101.993C104.932+101.993+101.674+99.3698+99.5192+94.8598C97.3642+99.3698+94.1062+101.993+90.5192+101.993C84.0702+101.993+79.0192+93.6468+79.0192+82.9928C79.0192+72.3388+84.0702+63.9928+90.5192+63.9928C94.1062+63.9928+97.3642+66.6158+99.5192+71.1258C101.674+66.6158+104.932+63.9928+108.519+63.9928C114.968+63.9928+120.019+72.3388+120.019+82.9928C120.019+93.6468+114.968+101.993+108.519+101.993ZM99.5192+89.2018L100.463+91.8988C102.21+96.8908+105.297+99.9928+108.519+99.9928C113.668+99.9928+118.019+92.2078+118.019+82.9928C118.019+73.7778+113.668+65.9928+108.519+65.9928C105.297+65.9928+102.21+69.0948+100.463+74.0868L99.5192+76.7838L98.5752+74.0868C96.8282+69.0948+93.7412+65.9928+90.5192+65.9928C85.3702+65.9928+81.0192+73.7778+81.0192+82.9928C81.0192+92.2078+85.3702+99.9928+90.5192+99.9928C93.7412+99.9928+96.8282+96.8908+98.5752+91.8988L99.5192+89.2018Z" opacity="1" fill="#fcdec0"/>
</g>
<path d="M108.149+65.0498C104.937+65.2668+102.234+67.9438+100.575+71.9748C103.039+74.5898+107.56+75.8558+110.884+75.8898C112.926+75.9108+115.89+75.4828+118.15+74.2658C116.027+68.5458+112.23+64.7748+108.149+65.0498Z" opacity="1" fill="#efd3bc"/>
<path d="M84.0192+85.1358C84.0192+81.1908+87.1214+77.9928+90.9482+77.9928C94.775+77.9928+97.8772+81.1908+97.8772+85.1358C97.8772+89.0808+94.775+92.2788+90.9482+92.2788C87.1214+92.2788+84.0192+89.0808+84.0192+85.1358Z" opacity="1" fill="#b66c8a"/>
<path d="M101.161+85.1358C101.161+81.1908+104.263+77.9928+108.09+77.9928C111.917+77.9928+115.019+81.1908+115.019+85.1358C115.019+89.0808+111.917+92.2788+108.09+92.2788C104.263+92.2788+101.161+89.0808+101.161+85.1358Z" opacity="1" fill="#b66c8a"/>
<path d="M86.8762+85.1358C86.8762+82.7687+88.7951+80.8498+91.1622+80.8498C93.5293+80.8498+95.4482+82.7687+95.4482+85.1358C95.4482+87.5029+93.5293+89.4218+91.1622+89.4218C88.7951+89.4218+86.8762+87.5029+86.8762+85.1358Z" opacity="1" fill="#212121"/>
<path d="M103.59+85.1358C103.59+82.7687+105.509+80.8498+107.876+80.8498C110.243+80.8498+112.162+82.7687+112.162+85.1358C112.162+87.5029+110.243+89.4218+107.876+89.4218C105.509+89.4218+103.59+87.5029+103.59+85.1358Z" opacity="1" fill="#212121"/>
<path d="M103.019+82.4928C103.019+81.1121+104.138+79.9928+105.519+79.9928C106.9+79.9928+108.019+81.1121+108.019+82.4928C108.019+83.8735+106.9+84.9928+105.519+84.9928C104.138+84.9928+103.019+83.8735+103.019+82.4928Z" opacity="1" fill="#fafafa"/>
<path d="M91.2212+65.0498C94.4332+65.2638+97.1382+67.9388+98.8002+71.9688C96.3382+74.5858+91.8182+75.8548+88.4942+75.8918C86.4522+75.9148+83.4882+75.4888+81.2272+74.2738C83.3462+68.5508+87.1402+64.7778+91.2212+65.0498Z" opacity="1" fill="#efd3bc"/>
<path d="M86.0192+82.4928C86.0192+81.1121+87.1385+79.9928+88.5192+79.9928C89.8999+79.9928+91.0192+81.1121+91.0192+82.4928C91.0192+83.8735+89.8999+84.9928+88.5192+84.9928C87.1385+84.9928+86.0192+83.8735+86.0192+82.4928Z" opacity="1" fill="#fafafa"/>
</g>
</svg>
