<?xml version="1.0" encoding="utf-8"?>
<!-- Generator: Adobe Illustrator 24.3.0, SVG Export Plug-In . SVG Version: 6.00 Build 0)  -->
<svg version="1.1" id="Capa_1" xmlns="http://www.w3.org/2000/svg" xmlns:xlink="http://www.w3.org/1999/xlink" x="0px" y="0px"
	 viewBox="0 0 512 512" style="enable-background:new 0 0 512 512;" xml:space="preserve">
<style type="text/css">
	.st0{fill:#F3EAE6;}
	.st1{fill:#A7EEDC;}
	.st2{fill:#86E8D0;}
	.st3{fill:#5DE1C4;}
</style>
<g>
	<g>
		<path class="st0" d="M341.6,389.4c-0.8,0-1.7-0.3-2.4-0.8c-1.6-1.3-1.9-3.7-0.6-5.4l6.5-8.2l30.2-71.1c1.9-4.6,1.6-9.9-0.9-14.1
			l-0.9-1.5c-2.5-4.2-6.6-7-11.5-7.7c-4.8-0.7-9.6,0.9-13.1,4.2l-27.9,27.6c-1.5,1.5-3.9,1.5-5.4,0c-1.5-1.5-1.5-3.9,0-5.4
			l27.9-27.6c0,0,0,0,0,0c5.2-5,12.3-7.3,19.5-6.3c7.2,1,13.3,5.2,17,11.4l0.9,1.5c3.7,6.4,4.2,14.2,1.3,21l-30.4,71.6
			c-0.1,0.3-4.7,8-5,8.3l-2.4,1.2C343.8,388.9,342.7,389.4,341.6,389.4L341.6,389.4z"/>
	</g>
	<g>
		<path class="st0" d="M171.1,391c-0.9,0-1.9-0.4-2.6-1.1l-5.9-3.3c-0.4-0.4-5.4-7.6-5.6-8.1l-30.4-71.6c-2.9-6.8-2.4-14.6,1.3-21
			l0.9-1.5c3.6-6.2,9.8-10.4,17-11.4c7.2-1,14.3,1.3,19.5,6.3l25.3,24.7c1.5,1.5,1.5,3.9,0.1,5.4c-1.5,1.5-3.9,1.5-5.4,0.1
			l-25.3-24.6c-3.5-3.4-8.3-4.9-13.1-4.2c-4.8,0.7-9,3.5-11.5,7.7l-0.9,1.5c-2.5,4.3-2.8,9.6-0.9,14.1l30.1,70.9l10.1,9.6
			c1.5,1.5,1.6,3.9,0.1,5.4C173.1,390.6,172.1,391,171.1,391L171.1,391z"/>
	</g>
	<g>
		<g id="XMLID_857_">
			<g>
				<path class="st1" d="M347.5,279.3c12.4,39.6,12.5,75.5,0.1,107.9c-0.5,1.2-1.4,2.1-2.6,2.6c-60.2,23.9-120.4,23.9-180.6,0
					c-1.2-0.5-2.2-1.5-2.6-2.7c-13.1-35.8-13-71.7,0-107.8c0.5-1.3,1.5-2.3,2.8-2.8c63.5-22.9,123.6-22.9,180.3-0.1
					C346.1,276.9,347.1,278,347.5,279.3z"/>
			</g>
		</g>
		<g>
			<path class="st2" d="M287.4,405.3c-41,5.9-82,0.7-123-15.5c-1.2-0.5-2.2-1.5-2.6-2.7c-13.1-35.8-13-71.7,0-107.8
				c0.5-1.3,1.5-2.3,2.8-2.8c9.3-3.3,18.5-6.2,27.6-8.6c-8.2,25.6-5,68.7-1.9,94.8c1.6,13.5,11.1,24.7,24.2,28.4
				C235.8,397.2,268.1,405.5,287.4,405.3L287.4,405.3z"/>
			<path class="st2" d="M351.5,368.5c-53.4,10.5-107.5,12.3-161.1,5.3v7.7c21.4,2.8,42.9,4.1,64.4,4.1c32.2,0,64.5-3.1,96.5-9.3
				c0.8-2.8,1.5-5.6,2.2-8.4L351.5,368.5z"/>
			<path class="st2" d="M350.6,290c-52.6-10.2-108.3-11.4-165.9-3.7v7.7c57.8-7.8,113.6-6.5,166.2,3.8c0,0,1.7,0.3,1.7,0.3
				C352,295.4,351.3,292.7,350.6,290z"/>
			<path class="st2" d="M284.2,336.3c0,2.1,1.7,3.8,3.8,3.8h68.8c0.1-2.5,0.1-5.1,0-7.6H288C285.9,332.5,284.2,334.2,284.2,336.3
				L284.2,336.3z"/>
			<path class="st2" d="M270.3,332.5h-89.6v7.6h89.6c2.1,0,3.8-1.7,3.8-3.8S272.4,332.5,270.3,332.5z"/>
		</g>
		<path class="st3" d="M188.1,340.1c-0.2-2.5-0.4-5.1-0.5-7.6h-35.6c0,0,0,0,0,0c0,2.5,0,5.1,0.1,7.6v0H188.1z"/>
	</g>
	<g>
		<path class="st3" d="M193.9,374.2c-12-1.5-23.9-3.4-35.8-5.7l-1.9-0.5c0.7,2.8,1.4,5.6,2.2,8.3c13.9,2.7,27.8,4.8,41.7,6.3
			C197.5,380.1,195.5,377.3,193.9,374.2L193.9,374.2z"/>
		<path class="st3" d="M188.5,285.8c-10,1.3-20.1,2.8-30.3,4.6c-0.8,2.8-1.5,5.6-2.2,8.3l1.9-0.5c10-1.8,19.9-3.3,29.7-4.6
			C187.9,290.9,188.2,288.3,188.5,285.8z"/>
	</g>
</g>
</svg>
