<?xml version="1.0" encoding="UTF-8" standalone="no"?> <!-- Created with Vectornator for iOS (http://vectornator.io/) --><!DOCTYPE svg PUBLIC "-//W3C//DTD SVG 1.1//EN" "http://www.w3.org/Graphics/SVG/1.1/DTD/svg11.dtd">
<svg style="fill-rule:evenodd;clip-rule:evenodd;stroke-linecap:round;stroke-linejoin:round;" xmlns:vectornator="http://vectornator.io" xmlns:xlink="http://www.w3.org/1999/xlink" xmlns="http://www.w3.org/2000/svg" xml:space="preserve" version="1.1" viewBox="0 0 200 200">
<metadata>
<vectornator:setting key="DimensionsVisible" value="1"/>
<vectornator:setting key="New" value="1"/>
<vectornator:setting key="SnapToPoints" value="0"/>
<vectornator:setting key="GuidesVisible" value="1"/>
<vectornator:setting key="RulersVisible" value="1"/>
<vectornator:setting key="CMYKEnabledKey" value="0"/>
<vectornator:setting key="SnapToEdges" value="0"/>
<vectornator:setting key="DisplayWhiteBackground" value="0"/>
<vectornator:setting key="SnapToGuides" value="1"/>
<vectornator:setting key="GridSpacing" value="36"/>
<vectornator:setting key="Units" value="Pixels"/>
<vectornator:setting key="DynamicGuides" value="0"/>
<vectornator:setting key="SnapToGrid" value="0"/>
</metadata>
<defs/>
<g id="Layer 1" vectornator:layerName="Layer 1">
<path d="M87.962+133.831C87.962+133.831+111.6+136.025+118.267+127.981C116.448+121.887+113.822+119.45+110.791+119.45C103.114+119.206+96.2453+133.831+87.962+133.831" opacity="1" fill="#ffffff"/>
<path d="M92.6087+135.05C90.1843+135.05+88.5681+135.05+87.962+135.05C85.1336+135.05+80.6889+133.587+76.4463+127.494L78.0625+126.031C81.6991+131.637+85.5376+132.612+87.962+132.856C91.8006+132.856+95.6392+129.2+99.0737+125.544C102.71+121.887+106.549+117.987+110.791+118.231C113.418+118.231+117.054+119.937+119.277+127.737L119.479+128.469L119.075+128.956C115.236+134.319+100.488+135.05+92.6087+135.05ZM110.589+120.425C107.357+120.425+103.922+123.594+100.488+127.25C98.4676+129.2+96.4473+131.15+94.427+132.612C102.508+132.369+113.822+131.394+117.054+127.494C115.64+123.106+113.418+120.669+110.589+120.425C110.791+120.425+110.589+120.425+110.589+120.425Z" opacity="1" fill="#9c8b88"/>
<g opacity="1">
<path d="M108.165+121.156L108.165+131.394C108.771+131.15+109.579+131.15+110.185+130.906L110.185+120.425C109.579+120.669+108.771+120.912+108.165+121.156Z" opacity="1" fill="#c5d4de"/>
<path d="M102.104+132.369L102.104+125.787C101.498+126.275+101.094+126.762+100.488+127.494C100.286+127.494+100.286+127.737+100.084+127.737L100.084+132.612C100.69+132.369+101.498+132.369+102.104+132.369Z" opacity="1" fill="#c5d4de"/>
</g>
</g>
</svg>
