<?xml version="1.0" encoding="utf-8"?>
<!-- Generator: Adobe Illustrator 24.3.0, SVG Export Plug-In . SVG Version: 6.00 Build 0)  -->
<svg version="1.1" id="Layer_1" xmlns="http://www.w3.org/2000/svg" xmlns:xlink="http://www.w3.org/1999/xlink" x="0px" y="0px"
	 viewBox="0 0 64 64" style="enable-background:new 0 0 64 64;" xml:space="preserve">
<style type="text/css">
	.st0{fill:#B4D3E0;}
	.st1{fill:#CCDEE6;}
	.st2{fill:#B4F5F0;}
	.st3{fill:#00C8C8;}
	.st4{fill:#64E1DC;}
	.st5{fill:#5D99AF;}
	.st6{fill:none;stroke:#4889A0;stroke-width:2;stroke-linecap:round;stroke-linejoin:round;}
</style>
<g id="Icons">
	<path class="st0" d="M20.8,44.3c-0.1,0-0.2,0-0.3-0.1l-1.9-1.5c-1.3-1.1-2.1-2.7-2.1-4.4v-3.1c0-0.6,0.4-1.2,0.9-1.4
		c0.5-0.2,1.2-0.1,1.6,0.3l2.2,2.3c0.2,0.2,0.2,0.5,0,0.7s-0.5,0.2-0.7,0l-2.2-2.3c-0.1-0.1-0.3-0.2-0.5-0.1
		c-0.2,0.1-0.3,0.3-0.3,0.5v3.1c0,1.4,0.6,2.8,1.8,3.7l1.9,1.5c0.2,0.2,0.2,0.5,0.1,0.7C21.1,44.3,20.9,44.3,20.8,44.3z"/>
	<path class="st1" d="M43,44.3c-0.3,0-0.5-0.2-0.5-0.5c0-0.1,0.1-0.3,0.2-0.4l1.9-1.5c1.1-0.9,1.8-2.2,1.8-3.7v-3.1
		c0-0.2-0.1-0.4-0.3-0.5c-0.2-0.1-0.4,0-0.5,0.1l-2.2,2.3c-0.2,0.2-0.5,0.2-0.7,0s-0.2-0.5,0-0.7l0,0l2.2-2.3c0.4-0.4,1-0.6,1.6-0.3
		c0.6,0.2,0.9,0.8,0.9,1.4v3.1c0,1.7-0.8,3.3-2.1,4.4l-1.9,1.5C43.2,44.3,43.1,44.3,43,44.3z"/>
	<path class="st2" d="M40.1,43.4c-0.6,1.7-1.4,3.3-2.4,4.8c0.2-0.1,0.4-0.1,0.6-0.2l2.8-1.1c1.2-0.5,2-1.7,2-3v-6.6
		c0-1.5-1-2.8-2.4-3.1l-7-1.3C37.7,35.4,42.2,38.5,40.1,43.4z"/>
	<path class="st3" d="M25.1,41.5c-1.4-2.7-0.2-5.9,2-7.9l-3.9,0.7c-1.4,0.3-2.4,1.6-2.4,3.1v6.6c0,1.3,0.8,2.5,1.9,3l2.8,1.1
		c3.4,1.3,7.1,1.5,10.6,0.6c-1.6-1.2-3.4-2.1-5.2-2.9C29.5,45.4,26.1,43.4,25.1,41.5z"/>
	<path class="st4" d="M40.1,43.4c2-4.9-2.4-8-6.5-10.4l-1.3-0.2c-0.3-0.1-0.7-0.1-1,0l-4.3,0.8c-2.2,2-3.4,5.1-2,7.9
		c1,1.9,4.4,3.9,5.8,4.4c1.8,0.8,3.6,1.7,5.2,2.9c0.5-0.1,1-0.3,1.6-0.5C38.7,46.7,39.5,45.1,40.1,43.4z"/>
	<path class="st5" d="M40.1,39.1C40.1,39.1,40.1,39.1,40.1,39.1l-8.2-1l-8.2,1c-0.3,0-0.5-0.2-0.5-0.4c0-0.3,0.2-0.5,0.4-0.5
		c0,0,0,0,0,0l8.2-1c0,0,0.1,0,0.1,0l8.2,1c0.3,0,0.5,0.3,0.4,0.5C40.6,38.9,40.4,39.1,40.1,39.1z"/>
	<path class="st5" d="M40.1,42C40.1,42,40.1,42,40.1,42l-8.2-1l-8.2,1c-0.3,0-0.5-0.2-0.5-0.4c0-0.3,0.2-0.5,0.4-0.5l8.2-1
		c0,0,0.1,0,0.1,0l8.2,1c0.3,0,0.5,0.3,0.4,0.5C40.6,41.8,40.4,42,40.1,42z"/>
	<path class="st5" d="M40.1,44.9C40.1,44.9,40.1,44.9,40.1,44.9l-8.2-1l-8.2,1c-0.3,0-0.5-0.2-0.5-0.4c0-0.3,0.2-0.5,0.4-0.5l8.2-1
		c0,0,0.1,0,0.1,0l8.2,1c0.3,0,0.5,0.3,0.4,0.5C40.6,44.7,40.4,44.9,40.1,44.9z"/>
	<path class="st6" d="M38.3,48.1l2.8-1.1c1.2-0.5,2-1.7,1.9-3v-6.6c0-1.5-1-2.8-2.4-3.1l-8.2-1.5c-0.3-0.1-0.7-0.1-1,0l-8.2,1.5
		c-1.4,0.3-2.4,1.6-2.4,3.1v6.6c0,1.3,0.8,2.5,1.9,3l2.8,1.1C29.6,49.6,34.2,49.6,38.3,48.1z"/>
	<path class="st6" d="M20.8,36.8l-2.2-2.3c-0.4-0.4-1-0.4-1.4,0c-0.2,0.2-0.3,0.5-0.3,0.7v3.1c0,1.6,0.7,3.1,1.9,4l1.9,1.5"/>
	<path class="st6" d="M43,36.8l2.2-2.3c0.4-0.4,1-0.4,1.4,0c0.2,0.2,0.3,0.5,0.3,0.7v3.1c0,1.6-0.7,3.1-1.9,4L43,43.9"/>
	<polyline class="st6" points="23.7,38.6 31.9,37.6 40.1,38.6 	"/>
	<polyline class="st6" points="23.7,41.5 31.9,40.5 40.1,41.5 	"/>
	<polyline class="st6" points="23.7,44.4 31.9,43.4 40.1,44.4 	"/>
</g>
</svg>
