<?xml version="1.0" encoding="UTF-8" standalone="no"?> <!-- Created with Vectornator for iOS (http://vectornator.io/) --><!DOCTYPE svg PUBLIC "-//W3C//DTD SVG 1.1//EN" "http://www.w3.org/Graphics/SVG/1.1/DTD/svg11.dtd">
<svg style="fill-rule:evenodd;clip-rule:evenodd;stroke-linecap:round;stroke-linejoin:round;" xmlns:vectornator="http://vectornator.io" xmlns:xlink="http://www.w3.org/1999/xlink" xmlns="http://www.w3.org/2000/svg" xml:space="preserve" version="1.1" viewBox="0 0 200 200">
<metadata>
<vectornator:setting key="DimensionsVisible" value="1"/>
<vectornator:setting key="SnapToGrid" value="0"/>
<vectornator:setting key="SnapToPoints" value="0"/>
<vectornator:setting key="GuidesVisible" value="1"/>
<vectornator:setting key="RulersVisible" value="1"/>
<vectornator:setting key="SnapToEdges" value="0"/>
<vectornator:setting key="DisplayWhiteBackground" value="0"/>
<vectornator:setting key="SnapToGuides" value="1"/>
<vectornator:setting key="GridSpacing" value="36"/>
<vectornator:setting key="Units" value="Pixels"/>
<vectornator:setting key="DynamicGuides" value="0"/>
<vectornator:setting key="New" value="1"/>
</metadata>
<defs/>
<g id="Layer 1" vectornator:layerName="Layer 1">
<path d="M87.7222+128.196C87.7222+128.196+111.36+130.389+118.027+122.346C116.208+116.252+113.582+113.814+110.552+113.814C102.874+113.571+96.0055+128.196+87.7222+128.196" opacity="1" fill="#ffffff"/>
<path d="M92.3689+129.414C89.9445+129.414+88.3283+129.414+87.7222+129.414C84.8938+129.414+80.4491+127.952+76.2065+121.858L77.8227+120.396C81.4593+126.002+85.2978+126.977+87.7222+127.221C91.5608+127.221+95.3994+123.564+98.8339+119.908C102.47+116.252+106.309+112.352+110.552+112.596C113.178+112.596+116.815+114.302+119.037+122.102L119.239+122.833L118.835+123.321C114.996+128.683+100.248+129.414+92.3689+129.414ZM110.35+114.789C107.117+114.789+103.683+117.958+100.248+121.614C98.2278+123.564+96.2075+125.514+94.1872+126.977C102.268+126.733+113.582+125.758+116.815+121.858C115.4+117.471+113.178+115.033+110.35+114.789C110.552+114.789+110.35+114.789+110.35+114.789Z" opacity="1" fill="#9c8b88"/>
<g opacity="1">
<path d="M107.925+115.521L107.925+125.758C108.531+125.514+109.339+125.514+109.946+125.271L109.946+114.789C109.339+115.033+108.531+115.277+107.925+115.521Z" opacity="1" fill="#c5d4de"/>
<path d="M101.864+126.733L101.864+120.152C101.258+120.639+100.854+121.127+100.248+121.858C100.046+121.858+100.046+122.102+99.844+122.102L99.844+126.977C100.45+126.733+101.258+126.733+101.864+126.733Z" opacity="1" fill="#c5d4de"/>
</g>
</g>
</svg>
