<?xml version="1.0" encoding="UTF-8" standalone="no"?> <!-- Created with Vectornator for iOS (http://vectornator.io/) --><!DOCTYPE svg PUBLIC "-//W3C//DTD SVG 1.1//EN" "http://www.w3.org/Graphics/SVG/1.1/DTD/svg11.dtd">
<svg style="fill-rule:evenodd;clip-rule:evenodd;stroke-linecap:round;stroke-linejoin:round;" xmlns:vectornator="http://vectornator.io" xmlns:xlink="http://www.w3.org/1999/xlink" xmlns="http://www.w3.org/2000/svg" xml:space="preserve" version="1.1" viewBox="0 0 200 200">
<metadata>
<vectornator:setting key="DimensionsVisible" value="1"/>
<vectornator:setting key="SnapToGrid" value="0"/>
<vectornator:setting key="SnapToPoints" value="0"/>
<vectornator:setting key="GuidesVisible" value="1"/>
<vectornator:setting key="RulersVisible" value="1"/>
<vectornator:setting key="SnapToEdges" value="0"/>
<vectornator:setting key="DisplayWhiteBackground" value="0"/>
<vectornator:setting key="SnapToGuides" value="1"/>
<vectornator:setting key="GridSpacing" value="36"/>
<vectornator:setting key="Units" value="Pixels"/>
<vectornator:setting key="DynamicGuides" value="0"/>
<vectornator:setting key="New" value="1"/>
</metadata>
<defs/>
<g id="Layer 1" vectornator:layerName="Layer 1">
<path d="M87.5192+115.332C82.6132+115.332+80.0192+117.991+80.0192+124.208C80.0192+126.871+82.0192+140.186+100.019+140.186C117.019+140.186+120.019+126.871+120.019+124.208C120.019+117.995+116.227+115.332+112.519+115.332C108.019+115.332+105.019+117.995+100.019+117.995C95.0192+117.995+92.0192+115.332+87.5192+115.332Z" opacity="1" fill="#2b2828"/>
<path d="M87.0192+136.635C87.1572+136.36+88.5972+133.085+94.1862+133.085C98.0192+133.085+100.019+134.86+100.019+134.86C100.019+134.86+102.019+133.085+105.852+133.085C111.441+133.085+112.881+136.361+113.019+136.635C113.019+136.635+108.019+140.186+100.019+140.186C91.0192+140.186+87.0192+136.635+87.0192+136.635Z" opacity="1" fill="#e57373"/>
<path d="M91.0192+115.847L91.0192+123.321L88.0192+128.647L84.0192+117.995L84.0192+115.953C85.0092+115.527+86.1792+115.332+87.5192+115.332C88.7792+115.332+89.9192+115.545+91.0192+115.847Z" opacity="1" fill="#fafafa"/>
<path d="M99.0192+117.959L99.0192+123.321L96.0192+125.984L93.0192+123.321L93.0192+116.477C94.8792+117.107+96.7492+117.799+99.0192+117.959Z" opacity="1" fill="#fafafa"/>
<path d="M116.019+116.21L116.019+117.995L112.019+128.647L109.019+123.321L109.019+115.847C110.119+115.545+111.259+115.332+112.519+115.332C113.729+115.332+114.939+115.616+116.019+116.21Z" opacity="1" fill="#fafafa"/>
<path d="M107.019+116.477L107.019+123.321L104.019+125.984L101.019+123.321L101.019+117.959C103.289+117.799+105.159+117.107+107.019+116.477Z" opacity="1" fill="#fafafa"/>
<path d="M93.0192+116.477L93.0192+123.321L91.0192+123.321L91.0192+115.847C91.6992+116.024+92.3592+116.246+93.0192+116.477Z" opacity="1" fill="#e0e0e0"/>
<path d="M101.019+117.959L101.019+123.321L99.0192+123.321L99.0192+117.959C99.3392+117.986+99.6792+117.995+100.019+117.995C100.359+117.995+100.699+117.986+101.019+117.959Z" opacity="1" fill="#e0e0e0"/>
<path d="M109.019+115.847L109.019+123.321L107.019+123.321L107.019+116.477C107.679+116.246+108.339+116.024+109.019+115.847Z" opacity="1" fill="#e0e0e0"/>
<path d="M100.019+141.961C81.9712+141.961+78.0192+129.146+78.0192+124.208C78.0192+115.404+83.1852+113.556+87.5192+113.556C90.0832+113.556+92.1512+114.267+94.1512+114.955C96.0412+115.606+97.8272+116.219+100.019+116.219C102.211+116.219+103.997+115.606+105.887+114.955C107.887+114.267+109.955+113.556+112.519+113.556C117.248+113.556+122.019+116.85+122.019+124.208C122.019+127.959+118.285+141.961+100.019+141.961ZM87.5192+117.107C84.6632+117.107+82.0192+117.967+82.0192+124.208C82.0192+124.35+82.2252+138.411+100.019+138.411C116.961+138.411+118.019+124.35+118.019+124.208C118.019+118.967+115.056+117.107+112.519+117.107C110.702+117.107+109.141+117.644+107.332+118.266C105.282+118.971+102.959+119.77+100.019+119.77C97.0792+119.77+94.7562+118.971+92.7062+118.266C90.8972+117.644+89.3362+117.107+87.5192+117.107Z" opacity="1" fill="#b34040"/>
</g>
</svg>
