<?xml version="1.0" encoding="UTF-8" standalone="no"?> <!-- Created with Vectornator for iOS (http://vectornator.io/) --><!DOCTYPE svg PUBLIC "-//W3C//DTD SVG 1.1//EN" "http://www.w3.org/Graphics/SVG/1.1/DTD/svg11.dtd">
<svg style="fill-rule:evenodd;clip-rule:evenodd;stroke-linecap:round;stroke-linejoin:round;" xmlns:vectornator="http://vectornator.io" xmlns:xlink="http://www.w3.org/1999/xlink" xmlns="http://www.w3.org/2000/svg" xml:space="preserve" version="1.1" viewBox="0 0 200 200">
<metadata>
<vectornator:setting key="DimensionsVisible" value="1"/>
<vectornator:setting key="DynamicGuides" value="0"/>
<vectornator:setting key="SnapToPoints" value="0"/>
<vectornator:setting key="GuidesVisible" value="1"/>
<vectornator:setting key="RulersVisible" value="1"/>
<vectornator:setting key="CMYKEnabledKey" value="0"/>
<vectornator:setting key="SnapToEdges" value="0"/>
<vectornator:setting key="DisplayWhiteBackground" value="0"/>
<vectornator:setting key="SnapToGuides" value="1"/>
<vectornator:setting key="GridSpacing" value="36"/>
<vectornator:setting key="SnapToGrid" value="0"/>
<vectornator:setting key="Units" value="Pixels"/>
<vectornator:setting key="New" value="1"/>
</metadata>
<defs/>
<g id="Layer 1" vectornator:layerName="Layer 1">
<g opacity="1">
<g opacity="1">
<path d="M100.909+134.206C110.906+134.206+119.009+125.355+119.009+114.439L82.8089+114.439C82.8089+125.355+90.9121+134.206+100.909+134.206Z" opacity="1" fill="#ee3e54"/>
<path d="M100.909+134.925C90.5651+134.925+82.1508+125.734+82.1508+114.439L82.1508+113.721L119.67+113.721L119.67+114.439C119.667+125.733+111.253+134.925+100.909+134.925ZM83.4777+115.158C83.8259+125.329+91.512+133.486+100.909+133.486C110.306+133.486+117.992+125.329+118.34+115.158L83.4777+115.158Z" opacity="1" fill="#472b29"/>
</g>
<g opacity="1">
<path d="M100.909+119.829C106.53+119.829+111.552+122.628+114.869+127.017C117.458+123.6+119.009+119.216+119.009+114.438L82.8089+114.438C82.8089+119.216+84.3623+123.6+86.9472+127.017C90.2658+122.628+95.2875+119.829+100.909+119.829Z" opacity="1" fill="#961b30"/>
<path d="M86.9472+128.145L86.4387+127.476C83.6723+123.821+82.1494+119.189+82.1494+114.438L82.1494+113.719L119.668+113.719L119.668+114.438C119.668+119.193+118.143+123.824+115.379+127.476L114.871+128.145L114.362+127.476C111.037+123.073+106.132+120.55+100.909+120.55C95.6874+120.55+90.7836+123.073+87.4558+127.476L86.9472+128.145ZM100.909+119.109C106.255+119.109+111.29+121.569+114.848+125.888C116.983+122.796+118.205+119.037+118.34+115.155L83.4777+115.155C83.6127+119.032+84.835+122.791+86.9698+125.888C90.5294+121.569+95.5642+119.109+100.909+119.109Z" opacity="1" fill="#472b29"/>
</g>
</g>
</g>
</svg>
