<?xml version="1.0" encoding="UTF-8" standalone="no"?> <!-- Created with Vectornator for iOS (http://vectornator.io/) --><!DOCTYPE svg PUBLIC "-//W3C//DTD SVG 1.1//EN" "http://www.w3.org/Graphics/SVG/1.1/DTD/svg11.dtd">
<svg style="fill-rule:evenodd;clip-rule:evenodd;stroke-linecap:round;stroke-linejoin:round;" xmlns:vectornator="http://vectornator.io" xmlns:xlink="http://www.w3.org/1999/xlink" xmlns="http://www.w3.org/2000/svg" xml:space="preserve" version="1.1" viewBox="0 0 200 200">
<metadata>
<vectornator:setting key="DimensionsVisible" value="1"/>
<vectornator:setting key="SnapToGrid" value="0"/>
<vectornator:setting key="SnapToPoints" value="0"/>
<vectornator:setting key="GuidesVisible" value="1"/>
<vectornator:setting key="RulersVisible" value="1"/>
<vectornator:setting key="SnapToEdges" value="0"/>
<vectornator:setting key="DisplayWhiteBackground" value="0"/>
<vectornator:setting key="SnapToGuides" value="1"/>
<vectornator:setting key="GridSpacing" value="36"/>
<vectornator:setting key="Units" value="Pixels"/>
<vectornator:setting key="DynamicGuides" value="0"/>
<vectornator:setting key="New" value="1"/>
</metadata>
<defs/>
<g id="Layer 1" vectornator:layerName="Layer 1">
<g opacity="1">
<path d="M78.8536+113.659C78.604+114.973+78.4562+116.323+78.4562+117.707C78.4562+130.003+88.7228+139.971+101.387+139.971C114.051+139.971+124.318+130.003+124.318+117.707C124.318+116.323+124.17+114.973+123.92+113.659C108.811+116.985+93.7841+116.994+78.8536+113.659Z" opacity="1" fill="#b71c1c"/>
<path d="M101.387+141.224C88.0399+141.224+77.1823+130.674+77.1823+117.706C77.1823+116.314+77.3186+114.914+77.6014+113.427C77.6651+113.092+77.8651+112.798+78.1543+112.61C78.4447+112.422+78.7989+112.361+79.1365+112.435C93.7943+115.71+108.769+115.71+123.642+112.433C123.981+112.359+124.333+112.423+124.623+112.611C124.913+112.798+125.111+113.094+125.175+113.427C125.455+114.917+125.592+116.316+125.592+117.707C125.592+130.674+114.734+141.224+101.387+141.224ZM79.8995+115.169C79.7862+116.034+79.7301+116.874+79.7301+117.707C79.7301+129.293+89.4451+138.718+101.387+138.718C113.329+138.718+123.044+129.293+123.044+117.706C123.044+116.871+122.988+116.032+122.873+115.164C108.515+118.142+94.0695+118.144+79.8995+115.169Z" opacity="1" fill="#e53935"/>
</g>
<g opacity="1">
<path d="M86.4654+132.897C90.3534+136.494+95.602+138.718+101.387+138.718C107.14+138.718+112.363+136.515+116.245+132.953C106.438+134.938+96.5077+134.843+86.4654+132.897Z" opacity="1" fill="#ffffff"/>
<path d="M122.665+121.541C122.904+120.297+123.044+119.018+123.044+117.707C123.044+116.874+122.988+116.033+122.873+115.166C108.512+118.144+94.0656+118.146+79.8995+115.17C79.7862+116.036+79.7301+116.875+79.7301+117.707C79.7301+119.016+79.8702+120.292+80.1072+121.536C94.2631+124.583+108.448+124.651+122.665+121.541Z" opacity="1" fill="#ffffff"/>
</g>
<g opacity="1">
<path d="M100.113+134.362L100.113+138.658C100.537+138.682+100.958+138.718+101.387+138.718C101.816+138.718+102.237+138.682+102.661+138.658L102.661+134.374C101.812+134.384+100.963+134.379+100.113+134.362Z" opacity="1" fill="#cfd8dc"/>
<path d="M92.4694+133.818L92.4694+136.817C93.2949+137.183+94.1395+137.514+95.0173+137.778L95.0173+134.085C94.1688+134.012+93.3191+133.921+92.4694+133.818Z" opacity="1" fill="#cfd8dc"/>
<path d="M107.757+134.135L107.757+137.777C108.633+137.513+109.479+137.183+110.304+136.816L110.304+133.878C109.456+133.978+108.606+134.066+107.757+134.135Z" opacity="1" fill="#cfd8dc"/>
<path d="M119.222+122.225L119.222+115.828C118.372+115.974+117.524+116.122+116.674+116.247L116.674+122.658C117.524+122.525+118.372+122.381+119.222+122.225Z" opacity="1" fill="#cfd8dc"/>
<path d="M93.7433+123.538L93.7433+117.091C92.8936+117.028+92.0439+116.975+91.1955+116.891L91.1955+123.304C92.0452+123.393+92.8936+123.472+93.7433+123.538Z" opacity="1" fill="#cfd8dc"/>
<path d="M111.578+123.322L111.578+116.88C110.729+116.964+109.88+117.015+109.03+117.078L109.03+123.552C109.88+123.487+110.729+123.409+111.578+123.322Z" opacity="1" fill="#cfd8dc"/>
<path d="M86.0998+122.64L86.0998+116.26C85.2488+116.133+84.4003+115.987+83.5519+115.839L83.5519+122.212C84.4016+122.364+85.25+122.508+86.0998+122.64Z" opacity="1" fill="#cfd8dc"/>
<path d="M102.661+123.832L102.661+117.365C101.811+117.376+100.963+117.379+100.113+117.369L100.113+123.829C100.963+123.842+101.811+123.842+102.661+123.832Z" opacity="1" fill="#cfd8dc"/>
</g>
</g>
</svg>
