<?xml version="1.0" encoding="UTF-8" standalone="no"?> <!-- Created with Vectornator for iOS (http://vectornator.io/) --><!DOCTYPE svg PUBLIC "-//W3C//DTD SVG 1.1//EN" "http://www.w3.org/Graphics/SVG/1.1/DTD/svg11.dtd">
<svg style="fill-rule:evenodd;clip-rule:evenodd;stroke-linecap:round;stroke-linejoin:round;" xmlns:vectornator="http://vectornator.io" xmlns:xlink="http://www.w3.org/1999/xlink" xmlns="http://www.w3.org/2000/svg" xml:space="preserve" version="1.1" viewBox="0 0 200 200">
<metadata>
<vectornator:setting key="DimensionsVisible" value="1"/>
<vectornator:setting key="SnapToGrid" value="0"/>
<vectornator:setting key="SnapToPoints" value="0"/>
<vectornator:setting key="GuidesVisible" value="1"/>
<vectornator:setting key="RulersVisible" value="1"/>
<vectornator:setting key="SnapToEdges" value="0"/>
<vectornator:setting key="DisplayWhiteBackground" value="0"/>
<vectornator:setting key="SnapToGuides" value="1"/>
<vectornator:setting key="GridSpacing" value="36"/>
<vectornator:setting key="Units" value="Pixels"/>
<vectornator:setting key="DynamicGuides" value="0"/>
<vectornator:setting key="New" value="1"/>
</metadata>
<defs/>
<g id="Layer 1" vectornator:layerName="Layer 1">
<path d="M100.052+77.5989L34.4197+166.3C34.4197+166.3+56.2972+184.04+100.052+184.04C143.807+184.04+165.685+166.3+165.685+166.3L100.052+77.5989Z" opacity="1" fill="#388e3c"/>
<path d="M100.052+59.8586L47.5462+126.385C47.5462+126.385+65.0482+139.69+100.052+139.69C135.056+139.69+152.558+126.385+152.558+126.385L100.052+59.8586Z" opacity="1" fill="#388e3c"/>
<path d="M100.052+37.6833L60.6727+90.9041C60.6727+90.9041+73.7993+99.7742+100.052+99.7742C126.305+99.7742+139.432+90.9041+139.432+90.9041L100.052+37.6833Z" opacity="1" fill="#388e3c"/>
<path d="M100.052+6.63789L107.351+20.3762L121.93+22.4898L111.504+33.0404L113.606+48.8923L100.052+41.512L86.4985+48.8923L88.6008+33.0404L78.1748+22.4898L92.7541+20.3762L100.052+6.63789Z" opacity="1" fill="#ffca28"/>
<path d="M146.115+139.863L140.697+132.535C131.963+136.017+118.443+139.69+100.052+139.69C81.6444+139.69+68.1419+136.017+59.4079+132.535L53.9898+139.863C63.5442+143.969+78.9439+148.56+100.052+148.56C121.161+148.56+136.56+143.969+146.115+139.863Z" opacity="1" fill="#1b5e20"/>
<path d="M100.052+99.7742C87.6949+99.7742+78.2773+97.8166+71.7482+95.7203L65.9199+103.118C73.2694+105.82+84.5842+108.644+100.052+108.644C115.52+108.644+126.835+105.82+134.185+103.118L128.356+95.7203C121.827+97.8166+112.41+99.7742+100.052+99.7742Z" opacity="1" fill="#1b5e20"/>
<path d="M100.052+41.512L95.3008+44.0934L82.8066+60.9847L90.6518+56.7056L100.052+51.5776L109.453+56.7056L117.298+60.9847L104.804+44.0934L100.052+41.512Z" opacity="1" fill="#1b5e20"/>
<path d="M100.052+70.9463C100.052+74.6191+97.1125+77.5989+93.489+77.5989C89.8656+77.5989+86.9258+74.6191+86.9258+70.9463C86.9258+67.2735+89.8656+64.2937+93.489+64.2937C97.1125+64.2937+100.052+67.2735+100.052+70.9463Z" opacity="1" fill="#cc2929"/>
<path d="M117.554+82.034C117.554+84.4767+115.589+86.469+113.179+86.469C110.769+86.469+108.803+84.4767+108.803+82.034C108.803+79.5912+110.769+77.5989+113.179+77.5989C115.589+77.5989+117.554+79.5912+117.554+82.034Z" opacity="1" fill="#cc2929"/>
<path d="M82.5503+117.514C82.5503+119.957+80.5847+121.95+78.1748+121.95C75.7648+121.95+73.7993+119.957+73.7993+117.514C73.7993+115.072+75.7648+113.079+78.1748+113.079C80.5847+113.079+82.5503+115.072+82.5503+117.514Z" opacity="1" fill="#cc2929"/>
<path d="M100.052+130.82C100.052+133.262+98.0868+135.255+95.6768+135.255C93.2669+135.255+91.3013+133.262+91.3013+130.82C91.3013+128.377+93.2669+126.385+95.6768+126.385C98.0868+126.385+100.052+128.377+100.052+130.82Z" opacity="1" fill="#cc2929"/>
<path d="M104.428+170.735C104.428+173.178+102.462+175.17+100.052+175.17C97.6424+175.17+95.6768+173.178+95.6768+170.735C95.6768+168.292+97.6424+166.3+100.052+166.3C102.462+166.3+104.428+168.292+104.428+170.735Z" opacity="1" fill="#cc2929"/>
<path d="M143.807+164.083C143.807+167.755+140.868+170.735+137.244+170.735C133.621+170.735+130.681+167.755+130.681+164.083C130.681+160.41+133.621+157.43+137.244+157.43C140.868+157.43+143.807+160.41+143.807+164.083Z" opacity="1" fill="#cc2929"/>
<path d="M124.118+121.95C124.118+125.622+121.178+128.602+117.554+128.602C113.931+128.602+110.991+125.622+110.991+121.95C110.991+118.277+113.931+115.297+117.554+115.297C121.178+115.297+124.118+118.277+124.118+121.95Z" opacity="1" fill="#cc2929"/>
<path d="M78.1748+161.865C78.1748+165.538+75.235+168.518+71.6115+168.518C67.988+168.518+65.0482+165.538+65.0482+161.865C65.0482+158.192+67.988+155.213+71.6115+155.213C75.235+155.213+78.1748+158.192+78.1748+161.865Z" opacity="1" fill="#cc2929"/>
</g>
</svg>
