<?xml version="1.0" encoding="UTF-8" standalone="no"?> <!-- Created with Vectornator for iOS (http://vectornator.io/) --><!DOCTYPE svg PUBLIC "-//W3C//DTD SVG 1.1//EN" "http://www.w3.org/Graphics/SVG/1.1/DTD/svg11.dtd">
<svg style="fill-rule:evenodd;clip-rule:evenodd;stroke-linecap:round;stroke-linejoin:round;" xmlns:vectornator="http://vectornator.io" xmlns:xlink="http://www.w3.org/1999/xlink" xmlns="http://www.w3.org/2000/svg" xml:space="preserve" version="1.1" viewBox="0 0 400 400">
<metadata>
<vectornator:setting key="DimensionsVisible" value="1"/>
<vectornator:setting key="SnapToGrid" value="0"/>
<vectornator:setting key="SnapToPoints" value="0"/>
<vectornator:setting key="GuidesVisible" value="1"/>
<vectornator:setting key="RulersVisible" value="1"/>
<vectornator:setting key="SnapToEdges" value="0"/>
<vectornator:setting key="DisplayWhiteBackground" value="0"/>
<vectornator:setting key="SnapToGuides" value="1"/>
<vectornator:setting key="GridSpacing" value="36"/>
<vectornator:setting key="Units" value="Pixels"/>
<vectornator:setting key="DynamicGuides" value="0"/>
<vectornator:setting key="New" value="1"/>
</metadata>
<defs/>
<g id="Layer 1" vectornator:layerName="Layer 1">
<path d="M345.111+177.716C345.111+159.847+334.626+144.773+320.11+141.023C316.898+125.949+306.413+114.662+293.534+112.787C295.14+108.081+296.746+103.375+296.746+97.7127C296.746+79.8444+283.836+64.7704+268.533+64.7704C263.684+64.7704+258.866+66.6454+254.836+68.5205C251.593+55.3583+241.139+45.9461+228.229+45.9461C225.804+45.9461+224.198+45.9461+222.593+46.9021C217.743+29.9529+204.046+17.7098+187.925+17.7098C175.015+17.7098+163.742+25.2469+157.287+37.49C155.681+36.534+153.257+36.534+151.651+36.534C135.529+36.534+122.619+50.6522+120.226+68.5205C116.196+66.6454+112.165+64.7704+107.316+64.7704C92.0133+64.7704+79.1034+79.8444+79.1034+97.7127C79.1034+99.5878+79.1034+101.463+79.9221+102.419C65.4062+105.25+54.9209+118.412+54.9209+135.361C54.9209+153.229+67.8308+168.304+83.1338+168.304C84.7397+168.304+86.3455+168.304+87.9829+167.348C82.3151+173.965+79.1034+182.422+79.1034+191.834C79.1034+193.709+79.1034+195.584+79.9221+196.54C65.4062+199.371+54.9209+212.533+54.9209+229.482C54.9209+247.35+67.8308+262.425+83.1338+262.425C84.7397+262.425+86.3455+262.425+87.1642+261.469C88.7701+277.499+100.861+290.661+115.377+290.661C124.257+290.661+132.317+285.955+137.954+277.499C144.409+284.999+154.075+290.661+163.742+290.661C172.622+290.661+180.682+286.911+187.106+280.293C190.349+280.293+193.561+281.249+195.985+281.249C202.44+281.249+208.077+280.293+214.532+279.374C221.774+285.955+230.653+290.661+240.32+290.661C254.017+290.661+266.108+282.205+273.382+269.962C279.018+276.543+287.079+281.249+296.746+281.249C314.473+281.249+328.989+264.3+328.989+243.6C328.989+232.313+324.14+221.945+317.717+214.408C333.02+212.533+345.111+196.54+345.111+177.716Z" opacity="1" fill="#8bc34a"/>
<path d="M127.468+130.655C122.619+130.655+119.408+126.905+119.408+121.243C119.408+96.7568+140.378+83.5946+159.712+83.5946C164.561+83.5946+167.773+87.3447+167.773+93.0067C167.773+98.6686+164.561+102.419+159.712+102.419C150.045+102.419+135.529+108.081+135.529+121.243C135.529+126.905+132.317+130.655+127.468+130.655ZM280.624+130.655C280.624+104.294+262.897+83.5946+240.32+83.5946C235.471+83.5946+232.259+87.3447+232.259+93.0067C232.259+98.6686+235.471+102.419+240.32+102.419C254.017+102.419+264.503+114.662+264.503+130.655C264.503+136.317+267.714+140.067+272.563+140.067C277.412+140.067+280.624+136.317+280.624+130.655ZM304.807+196.54C304.807+190.878+301.595+187.128+296.746+187.128C291.897+187.128+288.685+190.878+288.685+196.54C288.685+206.908+281.443+215.364+272.563+215.364C267.714+215.364+264.503+219.114+264.503+224.776C264.503+230.438+267.714+234.188+272.563+234.188C290.291+234.188+304.807+217.239+304.807+196.54ZM135.529+234.188C135.529+228.526+132.317+224.776+127.468+224.776C116.196+224.776+111.347+207.827+111.347+196.54C111.347+190.878+108.135+187.128+103.286+187.128C98.4368+187.128+95.225+190.878+95.225+196.54C95.225+219.114+106.498+243.6+127.468+243.6C132.317+243.6+135.529+239.85+135.529+234.188Z" opacity="1" fill="#689f38"/>
<path d="M216.138+356.546L216.138+243.6L183.894+243.6L183.894+356.546C183.894+365.958+167.773+375.37+167.773+375.37L232.259+375.37C232.259+375.37+216.138+365.958+216.138+356.546Z" opacity="1" fill="#795548"/>
<path d="M183.894+234.188L216.138+234.188L216.138+253.012L183.894+253.012L183.894+234.188Z" opacity="1" fill="#5d4037"/>
<path d="M256.442+234.188L143.59+234.188L143.59+149.479L200.016+121.243L256.442+149.479L256.442+234.188Z" opacity="1" fill="#8d6e63"/>
<path d="M183.894+168.304L216.138+168.304L216.138+205.952L183.894+205.952L183.894+168.304Z" opacity="1" fill="#3e2723"/>
<path d="M135.529+168.304L200.016+130.655L264.503+168.304L264.503+149.479L200.016+111.831L135.529+149.479L135.529+168.304Z" opacity="1" fill="#5d4037"/>
</g>
</svg>
