<?xml version="1.0" encoding="UTF-8" standalone="no"?> <!-- Created with Vectornator for iOS (http://vectornator.io/) --><!DOCTYPE svg PUBLIC "-//W3C//DTD SVG 1.1//EN" "http://www.w3.org/Graphics/SVG/1.1/DTD/svg11.dtd">
<svg style="fill-rule:evenodd;clip-rule:evenodd;stroke-linecap:round;stroke-linejoin:round;" xmlns:vectornator="http://vectornator.io" xmlns:xlink="http://www.w3.org/1999/xlink" xmlns="http://www.w3.org/2000/svg" xml:space="preserve" version="1.1" viewBox="0 0 200 200">
<metadata>
<vectornator:setting key="DimensionsVisible" value="1"/>
<vectornator:setting key="SnapToGrid" value="0"/>
<vectornator:setting key="SnapToPoints" value="0"/>
<vectornator:setting key="GuidesVisible" value="1"/>
<vectornator:setting key="RulersVisible" value="1"/>
<vectornator:setting key="SnapToEdges" value="0"/>
<vectornator:setting key="DisplayWhiteBackground" value="0"/>
<vectornator:setting key="SnapToGuides" value="1"/>
<vectornator:setting key="GridSpacing" value="36"/>
<vectornator:setting key="Units" value="Pixels"/>
<vectornator:setting key="DynamicGuides" value="0"/>
<vectornator:setting key="New" value="1"/>
</metadata>
<defs/>
<g id="Layer 1" vectornator:layerName="Layer 1">
<path d="M32.4215+54.3289C32.3156+44.228+35.7021+32.5008+41.175+24.5502C46.6478+16.6177+54.9932+10.4559+64.2456+8.70317C73.4829+6.82394+82.826+9.40789+90.1584+14.3409C97.5362+19.3642+102.223+26.8631+105.957+35.8256C97.6571+34.38+91.8063+31.8864+85.1996+30.8745C78.608+29.7723+72.7421+29.6458+67.2844+30.73C61.8115+31.778+56.4445+34.0729+50.7298+37.7952C44.9999+41.4995+39.1642+48.5466+32.4215+54.3289Z" opacity="1" fill="#388e3c"/>
<path d="M167.882+54.3289C162.046+50.0283+157.118+46.1614+152.265+42.8908C147.457+39.6202+142.876+37.1086+138.341+35.5365C133.79+33.9644+129.194+33.2597+123.903+33.4585C118.596+33.585+112.806+34.8318+105.957+35.8256C109.117+28.5074+114.333+22.8155+120.894+19.3642C127.425+15.8949+135.483+15.1721+142.68+17.7922C149.906+20.3038+155.984+25.6524+160.308+32.031C164.571+38.4999+167.519+46.0169+167.882+54.3289Z" opacity="1" fill="#388e3c"/>
<path d="M63.3838+179.153C105.957+133.166+102.087+35.8256+102.087+35.8256L109.827+35.8256C109.827+35.8256+113.698+164.589+90.4759+192.182C82.569+194.621+63.3838+192.941+63.3838+179.153Z" opacity="1" fill="#795548"/>
<path d="M105.957+35.8256C87.2708+63.7431+82.7353+123.662+82.7353+123.662" opacity="1" fill="#8bc34a"/>
<path d="M105.957+35.8256C105.745+45.4206+105.398+52.811+104.627+60.2376C103.841+67.5739+102.722+74.6391+101.089+81.6681C99.4713+88.6972+97.3397+95.6359+94.5276+102.629C91.6249+109.622+88.2082+116.579+82.7353+123.662C78.5778+115.314+77.1113+106.911+76.5822+98.6355C76.1437+90.3596+76.8543+82.156+78.729+74.2235C80.5734+66.2909+83.5668+58.5933+87.9209+51.6546C92.2901+44.8604+98.0805+38.4096+105.957+35.8256Z" opacity="1" fill="#8bc34a"/>
<path d="M105.957+35.8256C97.4153+40.4334+90.8236+44.9327+85.5322+49.9018C80.2408+54.8167+76.431+60.0569+72.9084+66.1644C69.4009+72.29+66.2714+79.4817+63.0512+87.5949C59.7706+95.7263+56.6259+104.671+51.7729+114.41C46.9502+104.653+45.0604+93.9916+45.1965+83.0053C45.4384+72.0732+47.9782+60.5448+53.7534+50.4981C59.4077+40.4514+68.5694+32.5369+78.3812+29.8988C88.1326+27.2606+98.2921+28.9411+105.957+35.8256Z" opacity="1" fill="#4caf50"/>
<path d="M152.355+119.036C147.956+109.676+144.796+101.545+141.682+93.847C138.643+86.2036+135.725+79.2649+132.641+72.9225C129.527+66.562+126.306+60.7797+122.104+54.9071C117.931+48.9261+112.624+43.1799+105.957+35.8256C114.363+31.778+123.797+32.4466+132.339+36.8375C140.881+41.2284+148.183+49.4501+152.718+58.9908C157.344+68.5315+159.476+79.1926+159.506+89.4923C159.416+99.7919+157.586+110.092+152.355+119.036Z" opacity="1" fill="#4caf50"/>
</g>
</svg>
