<?xml version="1.0" encoding="UTF-8" standalone="no"?> <!-- Created with Vectornator for iOS (http://vectornator.io/) --><!DOCTYPE svg PUBLIC "-//W3C//DTD SVG 1.1//EN" "http://www.w3.org/Graphics/SVG/1.1/DTD/svg11.dtd">
<svg style="fill-rule:evenodd;clip-rule:evenodd;stroke-linecap:round;stroke-linejoin:round;" xmlns:vectornator="http://vectornator.io" xmlns:xlink="http://www.w3.org/1999/xlink" xmlns="http://www.w3.org/2000/svg" xml:space="preserve" version="1.1" viewBox="0 0 400 400">
<metadata>
<vectornator:setting key="DimensionsVisible" value="1"/>
<vectornator:setting key="SnapToGrid" value="0"/>
<vectornator:setting key="SnapToPoints" value="0"/>
<vectornator:setting key="GuidesVisible" value="1"/>
<vectornator:setting key="RulersVisible" value="1"/>
<vectornator:setting key="SnapToEdges" value="0"/>
<vectornator:setting key="DisplayWhiteBackground" value="0"/>
<vectornator:setting key="SnapToGuides" value="1"/>
<vectornator:setting key="GridSpacing" value="36"/>
<vectornator:setting key="Units" value="Pixels"/>
<vectornator:setting key="DynamicGuides" value="0"/>
<vectornator:setting key="New" value="1"/>
</metadata>
<defs/>
<g id="Layer 1" vectornator:layerName="Layer 1">
<path d="M198.454+13.8578C195.012+14.6326+192.725+18.564+185.992+29.0095C173.982+47.6333+151.595+82.2984+124.083+96.503C118.857+99.2004+115.666+104.796+116.043+110.966C116.57+119.69+133.329+133.033+156.042+131.398C163.178+142.79+175.74+147.008+185.188+147.008C191.017+147.008+196.318+145.717+200.464+143.106C214.76+150.681+238.227+146.004+245.086+131.398C247.096+131.742+249.081+131.857+251.116+131.857C268.327+131.857+283.603+119.001+284.081+110.966C284.458+104.767+281.267+98.8561+276.041+96.2734C252.775+84.7088+228.83+49.556+215.941+30.6164C206.695+17.0431+204.408+13.8578+200.062+13.8578C199.509+13.8578+198.956+13.7431+198.454+13.8578ZM143.178+145.631C124.786+165.345+104.988+180.583+91.1184+188.101C84.7617+191.545+80.8171+198.575+81.2693+205.778C81.6462+211.604+95.44+238.607+129.309+238.607C131.62+238.607+133.932+238.406+136.344+238.148C146.419+248.306+160.113+254.217+174.534+254.217C184.132+254.217+193.228+251.577+200.464+246.871C221.845+257.833+245.89+254.504+261.166+238.836C263.704+239.066+266.192+239.295+268.604+239.295C304.734+239.295+318.427+212.694+318.854+205.549C319.281+198.289+315.512+191.66+309.005+188.101C294.809+180.468+274.684+165.431+256.543+146.32C254.734+146.521+252.95+146.549+251.116+146.549L250.915+146.549C242.925+155.703+230.162+161.242+216.142+161.242C210.74+161.242+205.614+160.582+200.866+158.946C196.092+160.869+190.74+161.701+185.188+161.701C174.359+161.701+160.314+157.569+150.213+146.32C147.826+146.234+145.49+145.975+143.178+145.631ZM108.204+250.085C90.6159+266.815+73.581+280.073+59.3601+287.735C51.722+291.896+47.3753+299.615+47.9029+308.166C48.3803+315.627+63.4555+344.898+100.767+344.898C104.46+344.898+108.279+344.553+112.224+343.979C128.404+356.405+148.153+363.034+169.509+363.034C179.886+363.034+190.062+361.57+200.062+358.442C210.765+361.57+221.016+363.034+230.413+363.034C248.905+363.034+264.91+357.208+279.257+345.127C281.468+345.271+283.503+345.385+285.689+345.357C320.387+345.357+350.462+325.298+352.221+308.625C353.125+300.189+348.527+291.838+340.562+287.505C324.156+278.724+307.07+266.098+290.513+250.774C284.005+252.783+276.744+253.988+268.604+253.988C267.548+253.988+266.468+254.017+265.388+253.988C254.559+263.113+240.865+267.992+226.393+267.992C217.901+267.992+209.283+266.27+201.067+262.941C193.127+266.815+183.982+268.91+174.534+268.91C158.881+268.91+144.032+263.372+132.123+253.299C131.143+253.328+130.264+253.299+129.309+253.299C121.52+253.299+114.435+252.151+108.204+250.085Z" opacity="1" fill="#154615"/>
</g>
</svg>
