<?xml version="1.0" encoding="UTF-8" standalone="no"?> <!-- Created with Vectornator for iOS (http://vectornator.io/) --><!DOCTYPE svg PUBLIC "-//W3C//DTD SVG 1.1//EN" "http://www.w3.org/Graphics/SVG/1.1/DTD/svg11.dtd">
<svg style="fill-rule:evenodd;clip-rule:evenodd;stroke-linecap:round;stroke-linejoin:round;" xmlns:vectornator="http://vectornator.io" xmlns:xlink="http://www.w3.org/1999/xlink" xmlns="http://www.w3.org/2000/svg" xml:space="preserve" version="1.1" viewBox="0 0 200 200">
<metadata>
<vectornator:setting key="DimensionsVisible" value="1"/>
<vectornator:setting key="SnapToGrid" value="0"/>
<vectornator:setting key="SnapToPoints" value="0"/>
<vectornator:setting key="GuidesVisible" value="1"/>
<vectornator:setting key="RulersVisible" value="1"/>
<vectornator:setting key="SnapToEdges" value="0"/>
<vectornator:setting key="DisplayWhiteBackground" value="0"/>
<vectornator:setting key="SnapToGuides" value="1"/>
<vectornator:setting key="GridSpacing" value="36"/>
<vectornator:setting key="Units" value="Pixels"/>
<vectornator:setting key="DynamicGuides" value="0"/>
<vectornator:setting key="New" value="1"/>
</metadata>
<defs/>
<g id="Layer 1" vectornator:layerName="Layer 1">
<g opacity="1">
<path d="M78.4658+187.817L78.4658+186.68L92.7924+176.883L92.7924+84.9451L107.119+84.9451L107.119+176.883L121.445+186.68L121.445+187.817L78.4658+187.817Z" opacity="1" fill="#a6714e"/>
<path d="M104.731+87.3945L104.731+175.57L104.731+178.191L106.856+179.646L115.223+185.367L84.6883+185.367L93.055+179.646L95.1801+178.191L95.1801+175.57L95.1801+87.3945L104.731+87.3945M109.507+82.4958L90.4046+82.4958L90.4046+175.57L76.078+185.367L76.078+190.266L123.833+190.266L123.833+185.367L109.507+175.57L109.507+82.4958L109.507+82.4958Z" opacity="1" fill="#7a4f34"/>
</g>
<g opacity="1">
<path d="M99.9556+163.323C68.4706+163.323+44.7172+155.006+36.8805+151.866L64.3398+114.895L60.9205+113.94C56.7181+112.765+53.4373+111.623+51.2835+110.815L76.5556+77.8176L72.8784+76.9604C69.8698+76.2549+67.4343+75.5446+65.696+74.996L88.3989+45.0996L84.4686+44.4089C80.5049+43.7084+77.3292+42.8707+75.1993+42.2241L99.9556+8.21277L124.712+42.2192C122.582+42.8658+119.406+43.7035+115.443+44.404L111.512+45.0947L134.215+74.9911C132.477+75.5446+130.041+76.25+127.033+76.9555L123.356+77.8127L148.628+110.81C146.479+111.618+143.193+112.76+138.991+113.935L135.571+114.891L163.031+151.856C155.18+155.001+131.393+163.323+99.9556+163.323Z" opacity="1" fill="#bae0bd"/>
<path d="M99.9556+12.3031L120.691+40.7888C119.072+41.1904+117.176+41.6117+115.042+41.984L107.176+43.3654L112.081+49.8219L130.161+73.6342C129.067+73.933+127.845+74.2465+126.498+74.5649L119.148+76.2843L123.805+82.3685L144.683+109.625C142.926+110.222+140.805+110.888+138.365+111.574L131.527+113.485L135.825+119.27L159.191+150.729C149.444+154.31+127.797+160.874+99.9556+160.874C72.2051+160.874+50.4956+154.305+40.7296+150.724L64.0915+119.275L68.3894+113.49L61.5509+111.579C59.1106+110.898+56.9903+110.227+55.2329+109.629L76.1115+82.3734L80.7676+76.2892L73.4181+74.5698C72.0761+74.2563+70.8488+73.9428+69.7552+73.6391L87.8354+49.8268L92.7398+43.3703L84.8745+41.9889C82.7399+41.6117+80.8392+41.1953+79.2251+40.7937L99.9556+12.3031M99.9556+4.11751L71.3025+43.483C71.3025+43.483+76.1353+45.4229+84.0675+46.819L61.7515+76.206C61.7515+76.206+65.6387+77.7735+72.3531+79.346L47.4249+111.888C47.4249+111.888+52.1431+114.023+60.2902+116.301L33.0983+152.914C33.0983+152.914+60.3761+165.773+99.9556+165.773C139.535+165.773+166.813+152.914+166.813+152.914L139.621+116.301C147.768+114.023+152.486+111.888+152.486+111.888L127.558+79.346C134.268+77.7735+138.16+76.206+138.16+76.206L115.844+46.819C123.776+45.4229+128.609+43.483+128.609+43.483L99.9556+4.11751L99.9556+4.11751Z" opacity="1" fill="#5e9c76"/>
</g>
</g>
</svg>
