<?xml version="1.0" encoding="UTF-8" standalone="no"?> <!-- Created with Vectornator for iOS (http://vectornator.io/) --><!DOCTYPE svg PUBLIC "-//W3C//DTD SVG 1.1//EN" "http://www.w3.org/Graphics/SVG/1.1/DTD/svg11.dtd">
<svg style="fill-rule:evenodd;clip-rule:evenodd;stroke-linecap:round;stroke-linejoin:round;" xmlns:vectornator="http://vectornator.io" xmlns:xlink="http://www.w3.org/1999/xlink" xmlns="http://www.w3.org/2000/svg" xml:space="preserve" version="1.1" viewBox="0 0 200 200">
<metadata>
<vectornator:setting key="DimensionsVisible" value="1"/>
<vectornator:setting key="SnapToGrid" value="0"/>
<vectornator:setting key="SnapToPoints" value="0"/>
<vectornator:setting key="GuidesVisible" value="1"/>
<vectornator:setting key="RulersVisible" value="1"/>
<vectornator:setting key="SnapToEdges" value="0"/>
<vectornator:setting key="DisplayWhiteBackground" value="0"/>
<vectornator:setting key="SnapToGuides" value="1"/>
<vectornator:setting key="GridSpacing" value="36"/>
<vectornator:setting key="Units" value="Pixels"/>
<vectornator:setting key="DynamicGuides" value="0"/>
<vectornator:setting key="New" value="1"/>
</metadata>
<defs/>
<g id="Layer 1" vectornator:layerName="Layer 1">
<g opacity="1">
<path d="M119.896+60.7602C117.957+60.0771+115.877+61.8531+114.466+62.9119C112.739+64.244+110.941+65.4735+109.425+67.0447C106.181+70.2893+103.643+74.183+100.4+77.3935C97.0152+80.7407+90.3873+85.898+85.2048+83.4047C82.3491+82.0385+81.0447+78.6231+81.0447+75.6516C81.0447+74.2854+81.7851+72.1337+81.1857+70.8358C80.6922+69.8112+78.6826+69.9819+77.625+70.4601C80.0928+73.4999+79.2115+77.6326+79.0352+81.2188C78.9294+83.1315+78.5416+85.3515+76.9551+86.6836C75.3687+87.9473+73.1476+87.6057+71.7727+86.2054C70.3625+84.7368+69.5869+82.4142+68.776+80.604C67.7536+78.3157+66.837+75.9932+65.9203+73.6707C64.2281+69.5038+62.5006+65.2686+59.8565+61.6141C59.2572+61.9898+58.6226+62.2972+57.988+62.6729C56.6483+63.4584+56.19+64.039+56.7188+65.5077C58.0937+69.2305+59.4687+72.9192+61.1962+76.4713C62.8884+79.9551+64.6159+83.4389+66.3434+86.9226C68.0356+90.304+69.5163+93.6853+70.2214+97.4081C70.292+97.7497+70.2567+98.0229+70.1862+98.262C70.574+99.3208+70.2567+100.824+70.1157+101.677C69.9394+102.736+69.7631+103.795+69.5516+104.82C69.6574+104.99+69.7984+105.195+69.9041+105.366C70.6445+106.562+69.9041+107.757+68.8818+108.167C68.8818+108.235+68.8465+108.338+68.8465+108.406C67.4363+115.066+67.1543+121.658+67.6126+128.455C67.8946+132.826+68.3882+137.198+68.8465+141.57C69.2696+145.874+69.5516+150.143+70.3977+154.412C71.1733+158.272+72.513+162.029+73.0418+165.922C73.4296+168.86+73.5707+172.138+75.2629+174.666C77.907+174.973+80.3044+176.032+82.8427+176.886C85.9099+177.911+89.3649+178.013+92.5731+177.842C98.1786+177.569+103.925+175.759+108.297+172.207C108.226+164.659+105.441+157.486+102.585+150.553C101.175+147.103+99.8356+143.619+98.3901+140.17C97.0152+136.891+95.5345+133.612+94.4416+130.231C92.291+123.639+91.3744+116.193+95.0409+109.909C96.8389+106.835+99.342+104.342+101.669+101.643C104.066+98.8768+105.794+95.7004+108.085+92.9339C108.262+92.6948+108.473+92.524+108.72+92.4215C108.72+92.3191+108.755+92.1825+108.755+92.08C108.438+91.4994+108.473+90.7821+109.143+90.2015C109.213+90.1332+109.249+90.099+109.284+89.9966C106.358+91.0212+102.585+91.8409+100.858+89.3135C98.0023+85.0783+103.467+79.4086+106.252+76.6079C109.566+73.2608+112.774+69.8112+116.476+66.8056C117.957+65.576+119.719+64.5172+121.13+63.1852C121.306+63.0144+122.046+62.4679+121.976+62.1605C121.905+61.7165+120.389+60.931+119.896+60.7602Z" opacity="1" fill="#c56528"/>
<path d="M151.502+76.3117C155.203+73.9892+159.293+71.8716+162.572+68.9685C165.78+66.1336+168.706+62.2742+168.6+57.8341C168.494+53.4623+166.309+49.6369+162.713+47.007C156.191+42.2937+147.659+42.1571+139.903+43.2159C131.653+44.343+123.721+46.7338+115.577+48.3391C112.827+48.8855+109.971+49.5345+107.186+49.7736C104.683+49.9785+101.299+50.0468+99.43+48.0658C96.8212+45.2993+99.0775+41.6448+101.44+39.5272C104.824+36.4874+108.561+33.8233+111.946+30.7153C113.814+28.9734+115.718+27.1632+117.199+25.1139C117.833+24.2259+118.926+22.6548+118.432+21.4594C117.375+18.7953+112.333+18.4879+109.936+18.1464C100.311+16.8826+89.4881+17.0876+80.4629+20.9812C76.0913+22.8597+72.3895+25.8653+68.7582+28.8368C64.9507+31.9448+61.0374+34.8138+56.6658+37.1705C49.227+41.2007+40.0959+44.3088+35.4423+51.6862C31.7405+57.5267+29.8368+65.1431+31.9521+71.8716C33.045+75.3554+35.0192+78.3268+37.9806+80.6152C41.7529+83.5183+46.1951+85.3627+50.5314+87.3437C54.7268+89.2905+58.7106+91.5447+62.0245+94.7552C63.7168+96.3946+65.2327+98.1365+66.6429+99.9809C66.6429+99.8443+66.6782+99.6735+66.6782+99.5369C66.4667+99.0587+66.5372+98.5122+66.7839+97.9999C66.6782+97.8291+66.6077+97.6242+66.5724+97.4193C65.7968+93.2866+63.7168+89.4271+61.7777+85.7042C59.874+82.0497+58.0407+78.2927+56.3837+74.5357C55.4671+72.4181+54.5857+70.2663+53.8101+68.0804C53.3166+66.646+52.4352+64.9724+52.7172+63.4013C52.9993+61.9326+53.9159+60.5664+55.2203+59.7467C56.3837+58.9953+57.9702+58.483+58.8868+57.4584C59.7682+56.4679+61.1784+56.7411+61.954+57.6633C67.207+63.9136+69.3223+71.9058+72.601+79.1465C72.9888+79.9663+73.3766+80.786+73.7644+81.6057C74.0112+82.1522+74.258+83.0402+74.7516+83.45L74.7516+83.45C74.8926+83.1768+74.9984+82.9377+75.0689+82.6303C75.1746+82.118+75.3156+81.5374+75.3156+80.9909C75.3509+79.5564+75.6329+78.1902+75.5977+76.7557C75.5977+75.6628+75.7387+73.6818+74.8926+72.7596C74.1522+71.9399+74.2933+70.9153+74.7868+70.198C74.1875+69.4125+74.117+68.2171+75.0689+67.3974C77.0784+65.7921+80.6039+65.8262+82.7897+66.9875C85.2223+68.2854+85.3986+70.8811+85.1518+73.2378C84.9402+75.0138+84.764+77.9511+86.2799+79.3173C87.3376+80.2395+88.783+80.0346+90.0522+79.5906C97.1737+77.0973+100.805+70.2322+105.705+65.1773C107.398+63.4354+109.231+61.9668+111.135+60.4981C112.686+59.3027+114.272+58.0048+116.106+57.2534C119.561+55.8872+125.025+57.3217+125.836+61.3178C126.506+64.5625+122.381+66.7826+120.195+68.4561C116.317+71.4959+113.003+75.0138+109.548+78.4635C108.067+79.9663+106.481+81.5374+105.353+83.3476C104.93+84.0648+104.401+84.8162+104.225+85.6359C104.154+85.9433+104.048+86.2849+104.084+86.5923C104.084+86.6947+104.119+86.763+104.119+86.8313C105.388+87.5827+109.125+85.8067+110.394+85.2944C111.311+84.9187+112.615+85.4993+112.862+86.4556C113.25+88.0609+113.708+90.1443+112.756+91.6813L112.756+91.6813C112.756+91.7155+112.721+91.7496+112.721+91.7496C112.721+91.7838+112.721+91.8179+112.721+91.8521C112.686+92.0228+112.651+92.1936+112.651+92.3644C112.651+92.4327+112.615+92.8084+112.615+92.7742C112.615+92.9792+112.615+93.2183+112.615+93.4232C112.615+94.2771+112.228+94.8918+111.522+95.2334C111.417+95.3017+111.311+95.4042+111.205+95.4383C111.029+95.5408+110.853+95.6091+110.676+95.6774C109.055+97.7608+107.785+100.049+106.128+102.098C104.295+104.387+102.109+106.47+100.276+108.827C102.109+110.296+104.895+111.047+107.186+111.389C109.795+111.764+112.439+111.696+115.048+111.423C120.125+110.91+125.201+109.886+130.313+110.364C139.268+111.184+148.329+118.185+157.319+113.54C160.139+112.072+163.488+109.578+162.818+106.06C162.149+102.542+158.729+100.22+155.662+98.683C150.514+96.0531+137.576+92.1595+142.3+84.2356C144.521+80.7518+148.117+78.4293+151.502+76.3117Z" opacity="1" fill="#3ab37c"/>
<path d="M146.266+24.8978C144.715+24.932+143.199+25.376+142.036+26.4006C141.472+26.913+140.908+27.6644+140.52+28.5524C140.344+28.9622+140.167+29.4062+140.132+29.8503C140.273+29.8844+140.414+29.9186+140.52+29.9869C142.142+29.5429+143.763+29.0647+145.314+28.4499C146.372+28.0059+147.465+27.5619+148.417+26.913C148.734+26.708+148.981+26.5031+149.228+26.1957C148.769+25.376+147.183+24.8637+146.266+24.8978Z" opacity="1" fill="#3ab37c"/>
<path d="M167.913+81.9702C165.939+82.2093+164.07+83.3023+162.836+84.7709C162.589+85.0783+162.307+85.2491+162.025+85.3515C162.202+85.5223+162.378+85.7272+162.519+86.0005C163.823+88.6645+169.64+86.9227+170.451+84.6343C171.051+83.029+169.429+81.7995+167.913+81.9702Z" opacity="1" fill="#3ab37c"/>
<path d="M184.483+66.7373C183.178+65.0978+180.323+65.6443+178.807+66.6006C177.326+67.5228+175.986+68.889+175.845+70.4943C175.881+70.4943+175.881+70.4943+175.916+70.5284C177.925+71.314+180.464+70.665+182.226+69.5721C183.037+69.0598+185.117+67.5228+184.483+66.7373Z" opacity="1" fill="#3ab37c"/>
<path d="M183.707+30.3284C178.771+28.1425+172.743+30.2943+168.089+32.8559C168.124+33.1291+168.089+33.4365+167.983+33.778C167.137+36.1347+171.509+37.5009+173.448+37.9449C176.55+38.6621+180.569+39.2428+183.601+38.3889C184.835+38.0474+186.21+36.8861+186.21+35.1101C186.175+33.3682+185.505+31.1481+183.707+30.3284Z" opacity="1" fill="#3ab37c"/>
<path d="M149.616+91.8751C148.029+91.0554+146.125+90.099+145.385+88.4255C144.68+86.8202+146.372+85.1125+147.395+84.0537C150.356+81.0822+154.446+79.0329+158.006+76.847C165.445+72.2703+172.778+66.1225+172.214+56.7641C171.72+48.2596+164.105+42.4192+156.208+40.2333C148.311+38.0474+139.674+39.3794+131.812+40.9847C124.444+42.4875+117.146+44.3318+109.777+45.7663C107.521+46.2103+104.489+46.8251+102.303+45.9029C100.153+44.9808+106.358+40.404+107.204+39.7551C111.011+36.852+114.819+33.539+118.027+30.021C120.389+27.4253+122.963+24.1123+121.87+20.4577C120.953+17.418+117.216+16.0859+114.396+15.4028C109.954+14.2757+105.089+14.0708+100.541+14.0367C90.8103+13.9342+80.7274+15.7444+72.6188+21.175C68.7055+23.7707+65.2505+26.9813+61.4782+29.7819C57.3886+32.7876+52.876+35.0759+48.3634+37.3643C44.3443+39.4136+40.1137+41.4628+36.7292+44.4343C34.0146+46.791+31.8993+49.6941+30.2776+52.8705C26.9989+59.2574+26.0822+66.908+28.2328+73.7731C30.8064+82.0385+38.4215+86.342+46.0365+89.8258C50.3376+91.8068+54.4977+93.7536+58.129+96.8275C61.0904+99.3549+63.4525+102.395+65.5325+105.605C65.2505+107.074+64.9332+108.577+64.5806+110.045C63.0294+117.218+63.4172+124.834+64.0518+132.075C64.7569+140.409+65.2505+148.913+67.0837+157.076C67.9299+160.799+68.9875+164.385+69.4811+168.177C69.9041+171.285+70.433+174.598+72.4072+177.193C72.6188+177.501+72.9008+177.672+73.1829+177.808C73.5001+178.116+73.9585+178.32+74.5225+178.355C76.8494+178.423+79.0704+179.516+81.221+180.267C83.7593+181.155+86.3682+181.497+89.0476+181.599C94.089+181.804+98.8837+181.087+103.608+179.311C105.617+178.56+107.486+177.535+109.249+176.339C110.165+175.725+110.976+175.007+111.787+174.324C112.668+173.539+112.281+171.524+112.245+170.499C112.069+165.41+110.553+160.423+108.826+155.676C105.441+146.318+100.787+137.369+97.8261+127.908C96.3806+123.331+95.8165+118.345+97.5793+113.768C97.7556+113.256+98.0023+112.778+98.2139+112.334C101.528+114.759+106.287+115.578+110.271+115.715C115.03+115.852+119.755+114.861+124.479+114.451C126.735+114.246+128.991+114.246+131.213+114.554C133.786+114.929+136.324+115.886+138.757+116.705C143.516+118.277+148.346+119.643+153.423+118.994C160.016+118.14+168.301+112.436+166.432+105.161C164.564+97.5106+155.891+95.0173+149.616+91.8751ZM95.0762+109.875C91.4097+116.193+92.3263+123.605+94.4768+130.197C95.5697+133.578+97.0505+136.857+98.4254+140.136C99.8709+143.585+101.211+147.069+102.621+150.519C105.476+157.452+108.297+164.624+108.332+172.173C103.996+175.725+98.2491+177.535+92.6083+177.808C89.4001+177.979+85.9451+177.876+82.878+176.852C80.3396+175.998+77.9423+174.973+75.2982+174.632C73.6059+172.07+73.4296+168.791+73.0771+165.888C72.5835+161.995+71.2086+158.238+70.433+154.378C69.5868+150.143+69.3048+145.839+68.8817+141.536C68.4234+137.164+67.9299+132.826+67.6478+128.421C67.1895+121.658+67.4716+115.032+68.8817+108.372C68.8817+108.303+68.917+108.201+68.917+108.133C69.9394+107.723+70.6798+106.527+69.9394+105.332C69.8336+105.161+69.7279+104.956+69.5868+104.786C69.7984+103.727+69.9747+102.702+70.1509+101.643C70.2919+100.755+70.6092+99.2525+70.2214+98.2278C70.2919+97.9888+70.3272+97.7155+70.2567+97.374C69.5516+93.6511+68.0709+90.2698+66.3786+86.8885C64.6512+83.4047+62.9237+79.9551+61.2314+76.4372C59.5039+72.8509+58.129+69.1622+56.754+65.4735C56.2252+64.0049+56.6835+63.4243+58.0232+62.6387C58.6578+62.263+59.2571+61.9556+59.8917+61.5799C62.5359+65.2686+64.2986+69.4696+65.9556+73.6365C66.9075+75.959+67.7888+78.2815+68.8112+80.5699C69.6221+82.3801+70.3625+84.7026+71.8079+86.1712C73.1476+87.5716+75.4039+87.9131+76.9904+86.6494C78.6121+85.3515+78.9999+83.1315+79.0704+81.1847C79.2467+77.5984+80.0928+73.4657+77.6602+70.426C78.7179+69.9478+80.7627+69.777+81.221+70.8017C81.8203+72.0995+81.08+74.2513+81.08+75.6175C81.08+78.5548+82.3844+82.0044+85.24+83.3706C90.4225+85.8639+97.0505+80.7065+100.435+77.3594C103.678+74.1147+106.217+70.2552+109.46+67.0105C111.011+65.4394+112.774+64.2098+114.502+62.8778C115.912+61.819+117.992+60.043+119.931+60.726C120.424+60.8968+121.976+61.6482+122.046+62.0922C122.117+62.3996+121.376+62.9461+121.2+63.1169C119.79+64.4489+118.062+65.5418+116.546+66.7373C112.88+69.7429+109.672+73.1925+106.323+76.5396C103.537+79.3403+98.0729+85.01+100.929+89.2452C102.621+91.7726+106.428+90.9529+109.354+89.9283C109.319+89.9966+109.284+90.0649+109.213+90.1332C108.508+90.7138+108.473+91.4311+108.826+92.0117C108.826+92.1142+108.79+92.2508+108.79+92.3532C108.579+92.4557+108.367+92.6265+108.156+92.8656C105.829+95.6662+104.137+98.8426+101.739+101.575C99.3773+104.307+96.8389+106.801+95.0762+109.875ZM157.266+113.734C148.276+118.379+139.251+111.377+130.261+110.558C125.149+110.079+120.037+111.104+114.995+111.616C112.386+111.89+109.742+111.992+107.133+111.582C104.842+111.241+102.057+110.455+100.223+109.021C102.021+106.698+104.242+104.615+106.076+102.292C107.733+100.243+109.002+97.9204+110.624+95.8712C110.8+95.837+110.976+95.7345+111.152+95.6321C111.258+95.5638+111.364+95.4955+111.47+95.4272C112.175+95.0856+112.563+94.4708+112.563+93.617C112.563+93.412+112.563+93.1729+112.563+92.968C112.563+93.0022+112.598+92.6265+112.598+92.5582C112.598+92.3874+112.633+92.2166+112.668+92.0458C112.668+92.0117+112.668+91.9775+112.668+91.9434C112.668+91.9092+112.704+91.9092+112.704+91.8751L112.704+91.8751C113.62+90.3723+113.197+88.2888+112.809+86.6494C112.563+85.6931+111.223+85.1125+110.342+85.4882C109.108+86.0005+105.371+87.7765+104.066+87.0251C104.066+86.9568+104.031+86.8885+104.031+86.786C103.996+86.4786+104.137+86.1371+104.172+85.8297C104.348+85.01+104.877+84.2586+105.3+83.5413C106.428+81.7311+108.015+80.16+109.495+78.6572C112.95+75.2076+116.264+71.6555+120.142+68.6499C122.293+66.9422+126.453+64.7563+125.783+61.5116C124.972+57.5155+119.473+56.081+116.053+57.4472C114.184+58.1986+112.633+59.4965+111.082+60.6919C109.143+62.1605+107.345+63.6292+105.653+65.3711C100.752+70.426+97.121+77.291+89.9995+79.7843C88.7303+80.2283+87.2848+80.4674+86.2272+79.5111C84.676+78.1449+84.8875+75.2076+85.099+73.4316C85.3458+71.0407+85.1695+68.445+82.737+67.1813C80.5511+66.02+77.0256+65.9859+75.0161+67.5911C74.029+68.3767+74.1347+69.6062+74.7341+70.3918C74.2053+71.1091+74.0995+72.1337+74.8398+72.9534C75.6507+73.8414+75.5097+75.8565+75.5449+76.9495C75.5802+78.384+75.2629+79.7843+75.2629+81.1847C75.2629+81.7311+75.1219+82.2776+75.0161+82.8241C74.9456+83.1315+74.8398+83.3706+74.6988+83.6438L74.6988+83.6438C74.2053+83.2339+73.9585+82.3459+73.7117+81.7995C73.3591+80.9797+72.9361+80.16+72.5483+79.3403C69.2696+72.0995+67.1543+64.1073+61.9013+57.8571C61.1257+56.9349+59.7155+56.6958+58.8341+57.6521C57.8822+58.7109+56.331+59.1891+55.1676+59.9405C53.8631+60.7943+52.9465+62.1264+52.6645+63.595C52.3472+65.1661+53.2286+66.8397+53.7574+68.2742C54.533+70.4601+55.3791+72.6119+56.331+74.7294C57.988+78.5206+59.8212+82.2435+61.725+85.898C63.664+89.6209+65.7441+93.4803+66.5197+97.613C66.5549+97.818+66.6254+98.0229+66.7312+98.1937C66.4492+98.6718+66.3787+99.2525+66.6254+99.7306C66.6254+99.8673+66.5902+100.038+66.5902+100.175C65.18+98.3303+63.664+96.5884+61.9718+94.949C58.6226+91.7385+54.674+89.4842+50.4787+87.5374C46.1776+85.5223+41.7002+83.7121+37.9279+80.809C34.9665+78.5206+32.9922+75.5492+31.8993+72.0654C29.784+65.3369+31.6878+57.7204+35.3895+51.88C40.0785+44.5026+49.1742+41.3945+56.613+37.3643C60.9846+35.0076+64.8627+32.1045+68.7055+29.0305C72.3367+26.0932+76.0385+23.0876+80.4101+21.175C89.4354+17.2813+100.259+17.0764+109.883+18.3401C112.281+18.6475+117.322+18.9891+118.38+21.6531C118.838+22.8485+117.78+24.3855+117.146+25.3077C115.665+27.357+113.761+29.2013+111.893+30.909C108.544+34.0171+104.807+36.6812+101.387+39.7209C99.0247+41.8385+96.7684+45.4589+99.3773+48.2596C101.246+50.2406+104.63+50.1381+107.133+49.9673C109.954+49.7282+112.774+49.0793+115.524+48.5328C123.668+46.9276+131.6+44.5367+139.85+43.4096C147.606+42.3508+156.138+42.4875+162.66+47.2008C166.256+49.7966+168.477+53.656+168.548+58.0278C168.653+62.4679+165.727+66.2932+162.519+69.1622C159.24+72.0654+155.186+74.183+151.449+76.5055C148.064+78.6231+144.468+80.9456+142.424+84.3952C137.699+92.3532+150.638+96.2469+155.785+98.8426C158.852+100.38+162.272+102.702+162.942+106.22C163.436+109.772+160.086+112.3+157.266+113.734Z" fill-opacity="0.0360607" fill="#ffffff" opacity="1"/>
<path d="M151.061+22.7119C147.148+19.9454+141.225+21.0384+138.334+24.7954C136.254+27.5277+134.95+32.5485+139.145+33.4023C139.603+33.7439+140.203+33.9147+140.908+33.7439C144.081+32.9583+147.289+31.9337+150.109+30.2943C153.212+28.4841+154.34+25.0344+151.061+22.7119ZM148.452+26.8446C147.5+27.5277+146.443+27.9717+145.35+28.3816C143.799+28.9964+142.177+29.5087+140.555+29.9186C140.414+29.8503+140.308+29.8161+140.167+29.7819C140.238+29.3379+140.379+28.8939+140.555+28.4841C140.943+27.596+141.507+26.8446+142.071+26.3323C143.234+25.3077+144.75+24.8637+146.302+24.8295C147.218+24.7954+148.805+25.3418+149.263+26.0932C149.016+26.4348+148.734+26.6397+148.452+26.8446Z" fill-opacity="0.0360607" fill="#ffffff" opacity="1"/>
<path d="M169.147+78.2474C165.727+77.8717+162.061+79.8185+159.945+82.3118C159.17+83.2339+159.487+84.2927+160.157+84.9075C159.099+85.1125+158.253+86.0346+158.852+87.23C161.708+93.0363+172.496+91.7043+174.188+85.5565C175.105+82.2435+172.708+78.6572+169.147+78.2474ZM170.451+84.6343C169.64+86.9227+163.823+88.6645+162.519+86.0005C162.378+85.7272+162.237+85.5223+162.025+85.3515C162.307+85.2491+162.589+85.0783+162.836+84.7709C164.07+83.3023+165.939+82.2093+167.913+81.9702C169.429+81.7995+171.051+83.029+170.451+84.6343Z" fill-opacity="0.0360607" fill="#ffffff" opacity="1"/>
<path d="M186.457+27.596C183.425+25.4101+178.912+25.5126+175.387+26.1957C171.227+26.9813+167.314+28.8256+163.788+31.0457C162.343+31.9678+162.942+33.7439+164.141+34.2904C164.105+38.0474+168.019+40.2674+171.791+41.3604C175.881+42.5558+181.592+43.273+185.681+41.6678C191.604+39.3794+191.111+30.909+186.457+27.596ZM183.601+38.3889C180.605+39.2086+176.55+38.6621+173.448+37.9449C171.509+37.5009+167.102+36.1689+167.983+33.778C168.089+33.4706+168.124+33.1633+168.089+32.8559C172.743+30.2943+178.771+28.1425+183.707+30.3284C185.505+31.1481+186.21+33.334+186.21+35.1101C186.21+36.9203+184.835+38.0474+183.601+38.3889Z" fill-opacity="0.0360607" fill="#ffffff" opacity="1"/>
<path d="M187.691+64.6538C185.399+61.1701+180.182+61.6482+177.009+63.3218C173.377+65.2345+170.698+69.6404+172.531+73.5682C173.131+74.8661+174.647+74.9685+175.598+74.3879C178.736+75.1051+181.98+74.2513+184.694+72.5436C187.338+70.87+189.665+67.6253+187.691+64.6538ZM182.226+69.5721C180.464+70.665+177.925+71.3481+175.916+70.5284C175.881+70.5284+175.881+70.5284+175.845+70.4943C175.986+68.889+177.326+67.5228+178.807+66.6006C180.323+65.6443+183.143+65.0978+184.483+66.7373C185.117+67.5228+183.037+69.0598+182.226+69.5721Z" fill-opacity="0.0360607" fill="#ffffff" opacity="1"/>
</g>
</g>
</svg>
