<?xml version="1.0" encoding="UTF-8" standalone="no"?> <!-- Created with Vectornator for iOS (http://vectornator.io/) --><!DOCTYPE svg PUBLIC "-//W3C//DTD SVG 1.1//EN" "http://www.w3.org/Graphics/SVG/1.1/DTD/svg11.dtd">
<svg style="fill-rule:evenodd;clip-rule:evenodd;stroke-linecap:round;stroke-linejoin:round;" xmlns:vectornator="http://vectornator.io" xmlns:xlink="http://www.w3.org/1999/xlink" xmlns="http://www.w3.org/2000/svg" xml:space="preserve" version="1.1" viewBox="0 0 200 200">
<metadata>
<vectornator:setting key="DimensionsVisible" value="1"/>
<vectornator:setting key="SnapToGrid" value="0"/>
<vectornator:setting key="SnapToPoints" value="0"/>
<vectornator:setting key="GuidesVisible" value="1"/>
<vectornator:setting key="RulersVisible" value="1"/>
<vectornator:setting key="SnapToEdges" value="0"/>
<vectornator:setting key="DisplayWhiteBackground" value="0"/>
<vectornator:setting key="SnapToGuides" value="1"/>
<vectornator:setting key="GridSpacing" value="36"/>
<vectornator:setting key="Units" value="Pixels"/>
<vectornator:setting key="DynamicGuides" value="0"/>
<vectornator:setting key="New" value="1"/>
</metadata>
<defs/>
<g id="Layer 1" vectornator:layerName="Layer 1">
<path d="M92.1292+126.444L108.176+126.444L108.176+126.444L108.176+184.449L108.176+184.449L92.1292+184.449L92.1292+184.449L92.1292+126.444L92.1292+126.444Z" opacity="1" fill="#795548"/>
<path d="M116.199+189.283L84.1058+189.283C84.1058+189.283+92.1292+184.449+92.1292+179.615C92.1292+174.782+108.176+174.782+108.176+179.615C108.176+184.449+116.199+189.283+116.199+189.283Z" opacity="1" fill="#795548"/>
<path d="M112.188+27.3515C112.188+39.4359+104.164+49.1035+94.135+49.1035C84.1058+49.1035+76.0825+39.4359+76.0825+27.3515C76.0825+15.2671+84.1058+5.59952+94.135+5.59952C104.164+5.59952+112.188+15.2671+112.188+27.3515Z" opacity="1" fill="#8bc34a"/>
<path d="M140.269+116.776C140.269+130.311+131.444+140.945+120.211+140.945C108.978+140.945+100.153+130.311+100.153+116.776C100.153+103.242+108.978+92.6074+120.211+92.6074C131.444+92.6074+140.269+103.242+140.269+116.776Z" opacity="1" fill="#8bc34a"/>
<path d="M164.339+121.61C164.339+132.244+157.118+140.945+148.293+140.945C139.467+140.945+132.246+132.244+132.246+121.61C132.246+110.976+139.467+102.275+148.293+102.275C157.118+102.275+164.339+110.976+164.339+121.61Z" opacity="1" fill="#8bc34a"/>
<path d="M148.293+46.6866C148.293+55.8707+141.874+63.6048+134.252+63.6048C126.63+63.6048+120.211+55.8707+120.211+46.6866C120.211+37.5024+126.63+29.7684+134.252+29.7684C141.874+29.7684+148.293+37.5024+148.293+46.6866Z" opacity="1" fill="#8bc34a"/>
<path d="M172.363+87.7736C172.363+98.4079+165.142+107.109+156.316+107.109C147.49+107.109+140.269+98.4079+140.269+87.7736C140.269+77.1393+147.49+68.4385+156.316+68.4385C165.142+68.4385+172.363+77.1393+172.363+87.7736Z" opacity="1" fill="#8bc34a"/>
<path d="M128.234+37.019C128.234+46.2032+121.816+53.9372+114.193+53.9372C106.571+53.9372+100.153+46.2032+100.153+37.019C100.153+27.8349+106.571+20.1008+114.193+20.1008C121.816+20.1008+128.234+27.8349+128.234+37.019Z" opacity="1" fill="#8bc34a"/>
<path d="M160.328+73.2723C160.328+83.9066+153.107+92.6074+144.281+92.6074C135.455+92.6074+128.234+83.9066+128.234+73.2723C128.234+62.638+135.455+53.9372+144.281+53.9372C153.107+53.9372+160.328+62.638+160.328+73.2723Z" opacity="1" fill="#8bc34a"/>
<path d="M116.199+133.694C116.199+145.779+108.176+155.446+98.1467+155.446C88.1175+155.446+80.0942+145.779+80.0942+133.694C80.0942+121.61+88.1175+111.942+98.1467+111.942C108.176+111.942+116.199+121.61+116.199+133.694Z" opacity="1" fill="#8bc34a"/>
<path d="M148.293+87.7736C148.293+58.2876+125.827+34.6021+98.1467+34.6021C70.4661+34.6021+48.0008+58.2876+48.0008+87.7736C48.0008+117.26+70.4661+140.945+98.1467+140.945C125.827+140.945+148.293+117.26+148.293+87.7736Z" opacity="1" fill="#8bc34a"/>
<path d="M92.1292+34.6021C92.1292+45.2364+84.9082+53.9372+76.0825+53.9372C67.2568+53.9372+60.0358+45.2364+60.0358+34.6021C60.0358+23.9679+67.2568+15.2671+76.0825+15.2671C84.9082+15.2671+92.1292+23.9679+92.1292+34.6021Z" opacity="1" fill="#8bc34a"/>
<path d="M72.0708+128.861C72.0708+138.045+65.6521+145.779+58.03+145.779C50.4078+145.779+43.9891+138.045+43.9891+128.861C43.9891+119.677+50.4078+111.942+58.03+111.942C65.6521+111.942+72.0708+119.677+72.0708+128.861Z" opacity="1" fill="#8bc34a"/>
<path d="M92.1292+124.027C92.1292+133.211+85.7105+140.945+78.0883+140.945C70.4661+140.945+64.0475+133.211+64.0475+124.027C64.0475+114.843+70.4661+107.109+78.0883+107.109C85.7105+107.109+92.1292+114.843+92.1292+124.027Z" opacity="1" fill="#8bc34a"/>
<path d="M56.0241+114.359C56.0241+123.544+49.6055+131.278+41.9833+131.278C34.3611+131.278+27.9424+123.544+27.9424+114.359C27.9424+105.175+34.3611+97.4412+41.9833+97.4412C49.6055+97.4412+56.0241+105.175+56.0241+114.359Z" opacity="1" fill="#8bc34a"/>
<path d="M68.0591+46.6866C68.0591+55.8707+61.6405+63.6048+54.0183+63.6048C46.3961+63.6048+39.9775+55.8707+39.9775+46.6866C39.9775+37.5024+46.3961+29.7684+54.0183+29.7684C61.6405+29.7684+68.0591+37.5024+68.0591+46.6866Z" opacity="1" fill="#8bc34a"/>
<path d="M68.0591+95.0243C68.0591+104.208+61.6405+111.942+54.0183+111.942C46.3961+111.942+39.9775+104.208+39.9775+95.0243C39.9775+85.8401+46.3961+78.1061+54.0183+78.1061C61.6405+78.1061+68.0591+85.8401+68.0591+95.0243Z" opacity="1" fill="#8bc34a"/>
<path d="M56.0241+66.0217C56.0241+75.2058+49.6055+82.9399+41.9833+82.9399C34.3611+82.9399+27.9424+75.2058+27.9424+66.0217C27.9424+56.8375+34.3611+49.1035+41.9833+49.1035C49.6055+49.1035+56.0241+56.8375+56.0241+66.0217Z" opacity="1" fill="#8bc34a"/>
<path d="M64.0475+63.6048C61.6405+63.6048+60.0358+61.6713+60.0358+58.771C60.0358+46.2032+70.4661+39.4359+80.0942+39.4359C82.5012+39.4359+84.1058+41.3694+84.1058+44.2697C84.1058+47.17+82.5012+49.1035+80.0942+49.1035C75.2802+49.1035+68.0591+52.0037+68.0591+58.771C68.0591+61.6713+66.4545+63.6048+64.0475+63.6048Z" opacity="1" fill="#689f38"/>
<path d="M128.234+73.2723C125.827+73.2723+124.223+71.3388+124.223+68.4385C124.223+60.2211+119.007+53.9372+112.188+53.9372C109.781+53.9372+108.176+52.0037+108.176+49.1035C108.176+46.2032+109.781+44.2697+112.188+44.2697C123.42+44.2697+132.246+54.904+132.246+68.4385C132.246+71.3388+130.641+73.2723+128.234+73.2723Z" opacity="1" fill="#689f38"/>
<path d="M132.246+116.776C129.839+116.776+128.234+114.843+128.234+111.942C128.234+109.042+129.839+107.109+132.246+107.109C136.659+107.109+140.269+102.758+140.269+97.4412C140.269+94.5409+141.874+92.6074+144.281+92.6074C146.688+92.6074+148.293+94.5409+148.293+97.4412C148.293+108.075+141.072+116.776+132.246+116.776Z" opacity="1" fill="#689f38"/>
<path d="M92.1292+131.278C89.7222+131.278+88.1175+129.344+88.1175+126.444C88.1175+117.26+96.542+107.109+104.164+107.109C106.571+107.109+108.176+109.042+108.176+111.942C108.176+114.843+106.571+116.776+104.164+116.776C100.955+116.776+96.1408+122.577+96.1408+126.444C96.1408+129.344+94.5362+131.278+92.1292+131.278Z" opacity="1" fill="#689f38"/>
<path d="M100.153+92.6074C97.7455+92.6074+96.1408+90.6739+96.1408+87.7736C96.1408+83.9066+91.3268+78.1061+88.1175+78.1061C85.7105+78.1061+84.1058+76.1726+84.1058+73.2723C84.1058+70.3721+85.7105+68.4385+88.1175+68.4385C95.7397+68.4385+104.164+78.5895+104.164+87.7736C104.164+90.6739+102.56+92.6074+100.153+92.6074Z" opacity="1" fill="#689f38"/>
<path d="M68.0591+121.61C57.6288+121.61+52.0125+109.042+52.0125+97.4412C52.0125+94.5409+53.6171+92.6074+56.0241+92.6074C58.4311+92.6074+60.0358+94.5409+60.0358+97.4412C60.0358+103.242+62.4428+111.942+68.0591+111.942C70.4661+111.942+72.0708+113.876+72.0708+116.776C72.0708+119.677+70.4662+121.61+68.0591+121.61Z" opacity="1" fill="#689f38"/>
</g>
</svg>
